G75*
%MOIN*%
%OFA0B0*%
%FSLAX25Y25*%
%IPPOS*%
%LPD*%
%AMOC8*
5,1,8,0,0,1.08239X$1,22.5*
%
%ADD10R,0.05800X0.08300*%
%ADD11C,0.08200*%
%ADD12R,0.10800X0.05800*%
%ADD13R,0.09800X0.06800*%
%ADD14R,0.05800X0.03000*%
%ADD15R,0.03000X0.05800*%
%ADD16R,0.02965X0.05524*%
%ADD17R,0.07099X0.11800*%
%ADD18R,0.04383X0.05603*%
%ADD19R,0.03950X0.04737*%
%ADD20R,0.06706X0.03556*%
%ADD21C,0.04343*%
%ADD22R,0.06706X0.07099*%
%ADD23R,0.05524X0.05524*%
%ADD24C,0.04800*%
%ADD25OC8,0.16611*%
D10*
X0037954Y0012000D03*
X0050954Y0012000D03*
X0061576Y0012000D03*
X0074576Y0012000D03*
X0035206Y0051370D03*
X0022206Y0051370D03*
X0051734Y0120268D03*
X0064734Y0120268D03*
X0064734Y0137984D03*
X0051734Y0137984D03*
X0081261Y0137984D03*
X0094261Y0137984D03*
X0094261Y0120268D03*
X0081261Y0120268D03*
X0093072Y0100583D03*
X0106072Y0100583D03*
D11*
X0026737Y0013969D03*
X0026737Y0023969D03*
X0026737Y0033969D03*
X0026737Y0141921D03*
X0026737Y0151921D03*
X0127131Y0147984D03*
X0127131Y0137984D03*
D12*
X0125163Y0062591D03*
X0125163Y0052591D03*
X0125163Y0042591D03*
X0125163Y0032591D03*
X0125163Y0022591D03*
X0125163Y0012591D03*
D13*
X0083045Y0081740D03*
X0083045Y0099740D03*
X0057045Y0099740D03*
X0057045Y0081740D03*
D14*
X0049208Y0054520D03*
X0049208Y0051370D03*
X0049208Y0048220D03*
X0049208Y0045071D03*
X0049208Y0041921D03*
X0049208Y0038772D03*
X0049208Y0035622D03*
X0049208Y0032472D03*
X0083008Y0032472D03*
X0083008Y0035622D03*
X0083008Y0038772D03*
X0083008Y0041921D03*
X0083008Y0045071D03*
X0083008Y0048220D03*
X0083008Y0051370D03*
X0083008Y0054520D03*
D15*
X0077131Y0060396D03*
X0073982Y0060396D03*
X0070832Y0060396D03*
X0067682Y0060396D03*
X0064533Y0060396D03*
X0061383Y0060396D03*
X0058234Y0060396D03*
X0055084Y0060396D03*
X0055084Y0026596D03*
X0058234Y0026596D03*
X0061383Y0026596D03*
X0064533Y0026596D03*
X0067682Y0026596D03*
X0070832Y0026596D03*
X0073982Y0026596D03*
X0077131Y0026596D03*
D16*
X0074178Y0164362D03*
X0081659Y0164362D03*
X0081659Y0174598D03*
X0077919Y0174598D03*
X0074178Y0174598D03*
D17*
X0050360Y0175386D03*
X0050360Y0160449D03*
X0105478Y0160449D03*
X0105478Y0175386D03*
D18*
X0084365Y0149795D03*
X0071472Y0149795D03*
D19*
X0126344Y0120465D03*
X0135005Y0120465D03*
X0135005Y0087787D03*
X0126344Y0087787D03*
D20*
X0121816Y0095268D03*
X0121816Y0107079D03*
X0121816Y0112984D03*
D21*
X0130675Y0110031D03*
X0130675Y0098220D03*
D22*
X0026737Y0100583D03*
X0026737Y0074992D03*
X0026737Y0128142D03*
D23*
X0022800Y0115051D03*
X0030675Y0115051D03*
X0030675Y0087492D03*
X0022800Y0087492D03*
X0022800Y0061902D03*
X0030675Y0061902D03*
D24*
X0039958Y0063526D03*
X0039564Y0071739D03*
X0034164Y0071626D03*
X0021058Y0070726D03*
X0039958Y0093732D03*
X0039452Y0099132D03*
X0040858Y0111732D03*
X0040858Y0119720D03*
X0034558Y0135526D03*
X0019877Y0132824D03*
X0057845Y0177713D03*
X0084958Y0158926D03*
X0088558Y0162526D03*
X0084958Y0144526D03*
X0091258Y0129226D03*
X0066338Y0112239D03*
X0067296Y0093788D03*
X0069320Y0081076D03*
X0076858Y0076126D03*
X0073258Y0072526D03*
X0067352Y0068926D03*
X0061052Y0073820D03*
X0054358Y0066620D03*
X0053458Y0071626D03*
X0059645Y0052557D03*
X0060039Y0041870D03*
X0055258Y0036245D03*
X0068533Y0043445D03*
X0073483Y0043838D03*
X0075677Y0036469D03*
X0074889Y0052726D03*
X0090864Y0051320D03*
X0096883Y0056494D03*
X0092439Y0043050D03*
X0103955Y0037827D03*
X0113026Y0032926D03*
X0116177Y0012226D03*
X0098064Y0083889D03*
X0102283Y0089794D03*
X0093452Y0092045D03*
X0088445Y0089683D03*
X0081639Y0092550D03*
X0114658Y0087826D03*
X0043559Y0019371D03*
X0023364Y0043051D03*
X0041252Y0048732D03*
D25*
X0024769Y0169480D03*
X0127131Y0169480D03*
M02*
