G75*
%MOIN*%
%OFA0B0*%
%FSLAX25Y25*%
%IPPOS*%
%LPD*%
%AMOC8*
5,1,8,0,0,1.08239X$1,22.5*
%
%ADD10R,0.08300X0.05800*%
%ADD11R,0.10249X0.08674*%
%ADD12R,0.05800X0.10800*%
%ADD13C,0.08200*%
%ADD14R,0.06312X0.04737*%
%ADD15R,0.15800X0.05800*%
%ADD16R,0.07099X0.11800*%
%ADD17C,0.04343*%
%ADD18R,0.04800X0.13800*%
%ADD19C,0.04800*%
%ADD20OC8,0.16611*%
D10*
X0094060Y0063768D03*
X0094060Y0076768D03*
X0107840Y0076768D03*
X0107840Y0063768D03*
X0052328Y0115343D03*
X0052328Y0128343D03*
D11*
X0101147Y0045071D03*
X0101147Y0029323D03*
D12*
X0111619Y0024126D03*
X0121619Y0024126D03*
X0131619Y0024126D03*
X0131619Y0045622D03*
X0121619Y0045622D03*
X0111619Y0045622D03*
D13*
X0026737Y0013969D03*
X0026737Y0023969D03*
X0026737Y0033969D03*
X0026737Y0141921D03*
X0026737Y0151921D03*
X0127131Y0147984D03*
X0127131Y0137984D03*
D14*
X0035005Y0127945D03*
X0035005Y0120465D03*
X0026344Y0124205D03*
D15*
X0028706Y0106961D03*
X0028706Y0096961D03*
X0028706Y0086961D03*
X0028706Y0076961D03*
X0050306Y0076961D03*
X0050306Y0086961D03*
X0050306Y0096961D03*
X0050306Y0106961D03*
D16*
X0033430Y0061213D03*
X0033430Y0044307D03*
D17*
X0130675Y0098220D03*
X0130675Y0110031D03*
D18*
X0111265Y0139047D03*
X0101265Y0129047D03*
X0091265Y0139047D03*
X0081265Y0129047D03*
X0071265Y0139047D03*
X0078903Y0162512D03*
X0088903Y0172512D03*
X0098903Y0162512D03*
X0108903Y0172512D03*
X0068903Y0172512D03*
D19*
X0057845Y0177713D03*
X0084958Y0158926D03*
X0088558Y0162526D03*
X0084958Y0144526D03*
X0091258Y0129226D03*
X0066338Y0112239D03*
X0067296Y0093788D03*
X0069320Y0081076D03*
X0076858Y0076126D03*
X0073258Y0072526D03*
X0067352Y0068926D03*
X0061052Y0073820D03*
X0054358Y0066620D03*
X0053458Y0071626D03*
X0039564Y0071739D03*
X0034164Y0071626D03*
X0039958Y0063526D03*
X0041252Y0048732D03*
X0055258Y0036245D03*
X0060039Y0041870D03*
X0068533Y0043445D03*
X0073483Y0043838D03*
X0075677Y0036469D03*
X0074889Y0052726D03*
X0059645Y0052557D03*
X0043559Y0019371D03*
X0023364Y0043051D03*
X0021058Y0070726D03*
X0039958Y0093732D03*
X0039452Y0099132D03*
X0040858Y0111732D03*
X0040858Y0119720D03*
X0034558Y0135526D03*
X0019877Y0132824D03*
X0081639Y0092550D03*
X0088445Y0089683D03*
X0093452Y0092045D03*
X0098064Y0083889D03*
X0102283Y0089794D03*
X0114658Y0087826D03*
X0096883Y0056494D03*
X0090864Y0051320D03*
X0092439Y0043050D03*
X0103955Y0037827D03*
X0113026Y0032926D03*
X0116177Y0012226D03*
D20*
X0127131Y0169480D03*
X0024769Y0169480D03*
M02*
