G75*
%MOIN*%
%OFA0B0*%
%FSLAX25Y25*%
%IPPOS*%
%LPD*%
%AMOC8*
5,1,8,0,0,1.08239X$1,22.5*
%
%ADD10R,0.05000X0.07500*%
%ADD11R,0.10000X0.05000*%
%ADD12R,0.09000X0.06000*%
%ADD13R,0.05000X0.02200*%
%ADD14R,0.02200X0.05000*%
%ADD15R,0.02165X0.04724*%
%ADD16R,0.06299X0.11000*%
%ADD17R,0.03583X0.04803*%
%ADD18R,0.03150X0.03937*%
%ADD19R,0.05906X0.02756*%
%ADD20R,0.05906X0.06299*%
%ADD21R,0.04724X0.04724*%
D10*
X0037954Y0012000D03*
X0050954Y0012000D03*
X0061576Y0012000D03*
X0074576Y0012000D03*
X0035206Y0051370D03*
X0022206Y0051370D03*
X0051734Y0120268D03*
X0064734Y0120268D03*
X0064734Y0137984D03*
X0051734Y0137984D03*
X0081261Y0137984D03*
X0094261Y0137984D03*
X0094261Y0120268D03*
X0081261Y0120268D03*
X0093072Y0100583D03*
X0106072Y0100583D03*
D11*
X0125163Y0062591D03*
X0125163Y0052591D03*
X0125163Y0042591D03*
X0125163Y0032591D03*
X0125163Y0022591D03*
X0125163Y0012591D03*
D12*
X0083045Y0081740D03*
X0083045Y0099740D03*
X0057045Y0099740D03*
X0057045Y0081740D03*
D13*
X0049208Y0054520D03*
X0049208Y0051370D03*
X0049208Y0048220D03*
X0049208Y0045071D03*
X0049208Y0041921D03*
X0049208Y0038772D03*
X0049208Y0035622D03*
X0049208Y0032472D03*
X0083008Y0032472D03*
X0083008Y0035622D03*
X0083008Y0038772D03*
X0083008Y0041921D03*
X0083008Y0045071D03*
X0083008Y0048220D03*
X0083008Y0051370D03*
X0083008Y0054520D03*
D14*
X0077131Y0060396D03*
X0073982Y0060396D03*
X0070832Y0060396D03*
X0067682Y0060396D03*
X0064533Y0060396D03*
X0061383Y0060396D03*
X0058234Y0060396D03*
X0055084Y0060396D03*
X0055084Y0026596D03*
X0058234Y0026596D03*
X0061383Y0026596D03*
X0064533Y0026596D03*
X0067682Y0026596D03*
X0070832Y0026596D03*
X0073982Y0026596D03*
X0077131Y0026596D03*
D15*
X0074178Y0164362D03*
X0081659Y0164362D03*
X0081659Y0174598D03*
X0077919Y0174598D03*
X0074178Y0174598D03*
D16*
X0050360Y0175386D03*
X0050360Y0160449D03*
X0105478Y0160449D03*
X0105478Y0175386D03*
D17*
X0084365Y0149795D03*
X0071472Y0149795D03*
D18*
X0126344Y0120465D03*
X0135005Y0120465D03*
X0135005Y0087787D03*
X0126344Y0087787D03*
D19*
X0121816Y0095268D03*
X0121816Y0107079D03*
X0121816Y0112984D03*
D20*
X0026737Y0100583D03*
X0026737Y0074992D03*
X0026737Y0128142D03*
D21*
X0022800Y0115051D03*
X0030675Y0115051D03*
X0030675Y0087492D03*
X0022800Y0087492D03*
X0022800Y0061902D03*
X0030675Y0061902D03*
M02*
