G75*
%MOIN*%
%OFA0B0*%
%FSLAX25Y25*%
%IPPOS*%
%LPD*%
%AMOC8*
5,1,8,0,0,1.08239X$1,22.5*
%
%ADD10C,0.00500*%
%ADD11C,0.00600*%
%ADD12C,0.04000*%
%ADD13C,0.01000*%
D10*
X0090060Y0062268D02*
X0098060Y0062268D01*
X0098060Y0078268D01*
X0090060Y0078268D01*
X0090060Y0062268D01*
X0103840Y0062268D02*
X0103840Y0078268D01*
X0111840Y0078268D01*
X0111840Y0062268D01*
X0103840Y0062268D01*
X0106265Y0047039D02*
X0107446Y0047039D01*
X0107446Y0027354D01*
X0106265Y0027354D01*
X0096029Y0027354D02*
X0094848Y0027354D01*
X0094848Y0047039D01*
X0096029Y0047039D01*
X0056328Y0113843D02*
X0048328Y0113843D01*
X0048328Y0129843D01*
X0056328Y0129843D01*
X0056328Y0113843D01*
D11*
X0068765Y0129047D02*
X0073765Y0129047D01*
X0076265Y0131547D01*
X0076265Y0136547D01*
X0073765Y0139047D01*
X0068765Y0139047D01*
X0066265Y0136547D01*
X0066265Y0131547D01*
X0068765Y0129047D01*
X0076265Y0131547D02*
X0078765Y0129047D01*
X0083765Y0129047D01*
X0086265Y0131547D01*
X0086265Y0136547D01*
X0083765Y0139047D01*
X0078765Y0139047D01*
X0076265Y0136547D01*
X0086265Y0136547D02*
X0088765Y0139047D01*
X0093765Y0139047D01*
X0096265Y0136547D01*
X0096265Y0131547D01*
X0093765Y0129047D01*
X0088765Y0129047D01*
X0086265Y0131547D01*
X0096265Y0131547D02*
X0098765Y0129047D01*
X0103765Y0129047D01*
X0106265Y0131547D01*
X0108765Y0129047D01*
X0113765Y0129047D01*
X0116265Y0131547D01*
X0116265Y0136547D01*
X0113765Y0139047D01*
X0108765Y0139047D01*
X0106265Y0136547D01*
X0103765Y0139047D01*
X0098765Y0139047D01*
X0096265Y0136547D01*
X0106265Y0136547D02*
X0106265Y0131547D01*
X0106403Y0162512D02*
X0111403Y0162512D01*
X0113903Y0165012D01*
X0113903Y0170012D01*
X0111403Y0172512D01*
X0106403Y0172512D01*
X0103903Y0170012D01*
X0101403Y0172512D01*
X0096403Y0172512D01*
X0093903Y0170012D01*
X0091403Y0172512D01*
X0086403Y0172512D01*
X0083903Y0170012D01*
X0081403Y0172512D01*
X0076403Y0172512D01*
X0073903Y0170012D01*
X0071403Y0172512D01*
X0066403Y0172512D01*
X0063903Y0170012D01*
X0063903Y0165012D01*
X0066403Y0162512D01*
X0071403Y0162512D01*
X0073903Y0165012D01*
X0073903Y0170012D01*
X0073903Y0165012D02*
X0076403Y0162512D01*
X0081403Y0162512D01*
X0083903Y0165012D01*
X0083903Y0170012D01*
X0083903Y0165012D02*
X0086403Y0162512D01*
X0091403Y0162512D01*
X0093903Y0165012D01*
X0096403Y0162512D01*
X0101403Y0162512D01*
X0103903Y0165012D01*
X0106403Y0162512D01*
X0103903Y0165012D02*
X0103903Y0170012D01*
X0093903Y0170012D02*
X0093903Y0165012D01*
X0031275Y0129805D02*
X0028075Y0129805D01*
X0028075Y0127605D01*
X0028075Y0120805D02*
X0028075Y0118605D01*
X0031275Y0118605D01*
D12*
X0016706Y0076961D02*
X0015706Y0076961D01*
D13*
X0025430Y0058713D02*
X0025430Y0043713D01*
X0027930Y0043713D01*
X0038930Y0043713D02*
X0041430Y0043713D01*
X0041430Y0058713D01*
X0038930Y0061213D01*
X0027930Y0061213D02*
X0025430Y0058713D01*
X0023982Y0063075D02*
X0023982Y0065437D01*
X0022800Y0064256D02*
X0025163Y0064256D01*
M02*
