%
M48
M72
T01C0.02400
T02C0.03543
T03C0.04000
T04C0.11811
%
T01
X23364Y43051
X41252Y48732
X39958Y63526
X39564Y71739
X34164Y71626
X21058Y70726
X39958Y93732
X39452Y99132
X40858Y111732
X40858Y119720
X34558Y135526
X19877Y132824
X57845Y177713
X84958Y158926
X88558Y162526
X84958Y144526
X91258Y129226
X66338Y112239
X67296Y93788
X69320Y81076
X76858Y76126
X73258Y72526
X67352Y68926
X61052Y73820
X54358Y66620
X53458Y71626
X59645Y52557
X60039Y41870
X55258Y36245
X68533Y43445
X73483Y43838
X75677Y36469
X74889Y52726
X90864Y51320
X96883Y56494
X92439Y43050
X103955Y37827
X113026Y32926
X116177Y12226
X98064Y83889
X102283Y89794
X93452Y92045
X88445Y89683
X81639Y92550
X114658Y87826
X43559Y19371
T02
X130675Y98220
X130675Y110031
T03
X26737Y13969
X26737Y23969
X26737Y33969
X26737Y141921
X26737Y151921
X127131Y147984
X127131Y137984
T04
X127131Y169480
X24769Y169480
M30
