G75*
%MOIN*%
%OFA0B0*%
%FSLAX25Y25*%
%IPPOS*%
%LPD*%
%AMOC8*
5,1,8,0,0,1.08239X$1,22.5*
%
%ADD10R,0.07500X0.05000*%
%ADD11R,0.09449X0.07874*%
%ADD12R,0.05000X0.10000*%
%ADD13C,0.07400*%
%ADD14R,0.05512X0.03937*%
%ADD15R,0.15000X0.05000*%
%ADD16R,0.06299X0.11000*%
%ADD17R,0.04000X0.13000*%
%ADD18C,0.01000*%
%ADD19C,0.04000*%
%ADD20OC8,0.15811*%
D10*
X0095635Y0011406D03*
X0095635Y0024406D03*
X0095635Y0062587D03*
X0095635Y0075587D03*
X0052328Y0117705D03*
X0052328Y0130705D03*
D11*
X0095635Y0051370D03*
X0095635Y0035622D03*
D12*
X0111226Y0045622D03*
X0121226Y0045622D03*
X0131226Y0045622D03*
X0131226Y0024126D03*
X0121226Y0024126D03*
X0111226Y0024126D03*
D13*
X0026737Y0023969D03*
X0026737Y0013969D03*
X0026737Y0033969D03*
X0026737Y0141921D03*
X0026737Y0151921D03*
X0127131Y0147984D03*
X0127131Y0137984D03*
D14*
X0035005Y0127945D03*
X0035005Y0120465D03*
X0026344Y0124205D03*
D15*
X0028706Y0106961D03*
X0028706Y0096961D03*
X0028706Y0086961D03*
X0028706Y0076961D03*
X0050306Y0076961D03*
X0050306Y0086961D03*
X0050306Y0096961D03*
X0050306Y0106961D03*
D16*
X0034612Y0063181D03*
X0034612Y0046276D03*
D17*
X0080478Y0119205D03*
X0090478Y0129205D03*
X0100478Y0119205D03*
X0110478Y0129205D03*
X0098509Y0154638D03*
X0088509Y0164638D03*
X0078509Y0154638D03*
X0068509Y0164638D03*
X0070478Y0129205D03*
X0108509Y0164638D03*
D18*
X0019089Y0043726D02*
X0021058Y0012226D01*
X0024658Y0008626D01*
X0040858Y0008626D01*
X0051658Y0018639D01*
X0056326Y0019032D01*
X0052558Y0023026D02*
X0074158Y0023026D01*
X0082258Y0014926D01*
X0080458Y0011326D02*
X0084958Y0011326D01*
X0087658Y0014026D01*
X0085858Y0017626D02*
X0081358Y0022126D01*
X0085858Y0017626D02*
X0124558Y0017626D01*
X0125458Y0018526D01*
X0125458Y0034726D01*
X0121858Y0038326D01*
X0121858Y0045526D01*
X0121226Y0045622D01*
X0125458Y0041926D02*
X0125458Y0050926D01*
X0120058Y0056326D01*
X0116458Y0056326D01*
X0112858Y0054526D02*
X0112858Y0086026D01*
X0086252Y0111845D01*
X0085858Y0107626D02*
X0081358Y0112126D01*
X0081358Y0118426D01*
X0080478Y0119205D01*
X0086758Y0118426D02*
X0127258Y0077926D01*
X0127258Y0068026D01*
X0127258Y0050026D01*
X0130858Y0046426D01*
X0131226Y0045622D01*
X0125458Y0041926D02*
X0130858Y0036526D01*
X0130858Y0024826D01*
X0131226Y0024126D01*
X0130858Y0023926D01*
X0130858Y0021226D01*
X0121858Y0012226D01*
X0117358Y0012226D01*
X0095758Y0012226D01*
X0095635Y0011406D01*
X0091258Y0020326D02*
X0100258Y0020326D01*
X0105658Y0025726D01*
X0111226Y0024126D02*
X0111958Y0024826D01*
X0111958Y0026626D01*
X0117358Y0032026D01*
X0120958Y0036526D02*
X0115558Y0041926D01*
X0115558Y0051826D01*
X0112858Y0054526D01*
X0111058Y0046426D02*
X0111226Y0045622D01*
X0111058Y0046426D02*
X0111058Y0084226D01*
X0103858Y0091426D01*
X0091258Y0091426D01*
X0085858Y0089626D02*
X0085858Y0107626D01*
X0084058Y0101326D02*
X0077758Y0107626D01*
X0078658Y0107626D01*
X0077758Y0107626D02*
X0075058Y0110326D01*
X0075058Y0124726D01*
X0087658Y0137326D01*
X0093058Y0137326D01*
X0100258Y0130126D01*
X0100258Y0119326D01*
X0100478Y0119205D01*
X0091258Y0117526D02*
X0100258Y0108526D01*
X0102058Y0109313D01*
X0091258Y0117526D02*
X0091258Y0128326D01*
X0090478Y0129205D01*
X0100258Y0139126D02*
X0110158Y0129226D01*
X0110478Y0129205D01*
X0111058Y0129226D01*
X0118258Y0129226D01*
X0126358Y0137326D01*
X0127131Y0137984D01*
X0126358Y0138226D01*
X0109258Y0155326D01*
X0109258Y0164326D01*
X0108509Y0164638D01*
X0098458Y0165226D02*
X0098458Y0155326D01*
X0098509Y0154638D01*
X0099358Y0154426D01*
X0103858Y0149926D01*
X0100258Y0139126D02*
X0069658Y0139126D01*
X0061558Y0131026D01*
X0057058Y0131026D01*
X0059026Y0124726D01*
X0057058Y0131026D02*
X0052558Y0131026D01*
X0052328Y0130705D01*
X0050758Y0131926D01*
X0050758Y0145426D01*
X0050758Y0131926D02*
X0051658Y0131026D01*
X0052328Y0130705D01*
X0050758Y0131926D02*
X0032758Y0131926D01*
X0032758Y0132826D01*
X0032758Y0131926D02*
X0031858Y0131926D01*
X0026458Y0126526D01*
X0026458Y0124726D01*
X0026344Y0124205D01*
X0021058Y0132037D02*
X0017458Y0120563D01*
X0017458Y0067126D01*
X0028258Y0056326D01*
X0028258Y0050026D01*
X0034558Y0049126D02*
X0034612Y0046276D01*
X0034558Y0046426D01*
X0034558Y0049126D01*
X0045358Y0049126D01*
X0047158Y0047326D01*
X0047158Y0043726D01*
X0057058Y0033826D01*
X0067858Y0037763D01*
X0075058Y0041026D01*
X0074889Y0041026D01*
X0084958Y0049126D01*
X0084958Y0059026D01*
X0087658Y0061726D01*
X0094858Y0061726D01*
X0095635Y0062587D01*
X0101158Y0057226D02*
X0095758Y0051826D01*
X0095635Y0051370D01*
X0094858Y0050926D01*
X0088558Y0057226D01*
X0083158Y0050926D02*
X0083158Y0074326D01*
X0090358Y0081526D01*
X0095635Y0075587D02*
X0095758Y0075226D01*
X0095758Y0073426D01*
X0101158Y0068026D01*
X0101158Y0057226D01*
X0103858Y0049126D02*
X0103858Y0086026D01*
X0095758Y0068026D02*
X0091258Y0068026D01*
X0086758Y0072526D01*
X0076858Y0080626D02*
X0085858Y0089626D01*
X0084058Y0090526D02*
X0084058Y0101326D01*
X0080458Y0092326D02*
X0076858Y0092326D01*
X0074158Y0089626D01*
X0070558Y0089626D01*
X0057058Y0103126D01*
X0032758Y0103126D01*
X0029158Y0106726D01*
X0028706Y0106961D01*
X0021058Y0101326D02*
X0019258Y0099526D01*
X0019258Y0094126D01*
X0025558Y0087826D01*
X0028258Y0087826D01*
X0028706Y0086961D01*
X0028706Y0076961D02*
X0029158Y0076126D01*
X0029158Y0058126D01*
X0034558Y0052726D01*
X0034558Y0049126D01*
X0041589Y0045526D02*
X0039958Y0041926D01*
X0039958Y0041026D01*
X0036358Y0037426D01*
X0024715Y0041363D01*
X0038721Y0036189D02*
X0027358Y0024826D01*
X0026737Y0023969D01*
X0027358Y0014026D02*
X0026737Y0013969D01*
X0027358Y0014026D02*
X0043558Y0014026D01*
X0052558Y0023026D01*
X0041983Y0036583D02*
X0038721Y0036189D01*
X0044458Y0041926D01*
X0043389Y0041926D01*
X0047158Y0043726D01*
X0057958Y0043726D02*
X0040858Y0060826D01*
X0035458Y0063526D02*
X0034612Y0063181D01*
X0035458Y0063526D02*
X0035458Y0071626D01*
X0040858Y0077026D01*
X0039958Y0077026D01*
X0040858Y0077026D02*
X0049858Y0077026D01*
X0050306Y0076961D01*
X0052389Y0071794D02*
X0057058Y0072526D01*
X0057958Y0072526D01*
X0059758Y0074326D01*
X0059758Y0079726D01*
X0052558Y0086926D01*
X0050758Y0086926D01*
X0050306Y0086961D01*
X0057058Y0092326D02*
X0042658Y0092326D01*
X0038158Y0096826D01*
X0038158Y0099526D01*
X0036358Y0101326D01*
X0021058Y0101326D01*
X0028706Y0096961D02*
X0029158Y0096826D01*
X0030958Y0096826D01*
X0040858Y0086926D01*
X0040858Y0082426D01*
X0050306Y0096961D02*
X0050758Y0096826D01*
X0056158Y0096826D01*
X0060658Y0092326D01*
X0061558Y0093226D01*
X0060658Y0092326D02*
X0068758Y0084226D01*
X0068758Y0080626D01*
X0057958Y0069826D01*
X0057958Y0068194D01*
X0060658Y0063526D02*
X0070558Y0073426D01*
X0070558Y0089626D01*
X0073258Y0094126D02*
X0073258Y0106726D01*
X0075058Y0110326D02*
X0059758Y0110326D01*
X0052558Y0117526D01*
X0052328Y0117705D01*
X0051658Y0118426D01*
X0049858Y0120226D01*
X0036358Y0120226D01*
X0035005Y0120465D01*
X0035458Y0120226D01*
X0036358Y0120226D01*
X0036358Y0114826D01*
X0040858Y0123826D02*
X0037258Y0127426D01*
X0035458Y0127426D01*
X0035005Y0127945D01*
X0026737Y0141921D02*
X0027358Y0142726D01*
X0039058Y0154426D01*
X0077758Y0154426D01*
X0078509Y0154638D01*
X0072358Y0158026D02*
X0070558Y0156226D01*
X0030958Y0156226D01*
X0027358Y0152626D01*
X0026737Y0151921D01*
X0070478Y0129205D02*
X0070558Y0128326D01*
X0070558Y0113926D01*
X0057058Y0092326D02*
X0065158Y0084226D01*
X0065158Y0082426D01*
X0073258Y0079726D02*
X0084058Y0090526D01*
X0076858Y0080626D02*
X0072921Y0050589D01*
X0069321Y0051826D02*
X0073258Y0079726D01*
X0060658Y0063526D02*
X0062626Y0052557D01*
X0069321Y0051826D02*
X0068084Y0047157D01*
X0073989Y0045526D02*
X0063921Y0040576D01*
X0062121Y0039394D01*
X0069489Y0034782D02*
X0079558Y0030845D01*
X0091258Y0020326D01*
X0095635Y0024406D02*
X0095758Y0024826D01*
X0095758Y0034726D01*
X0095635Y0035622D01*
X0094858Y0035626D01*
X0092158Y0038326D01*
X0092552Y0043613D01*
X0083158Y0050926D02*
X0075789Y0047494D01*
X0073989Y0045526D01*
X0072358Y0019426D02*
X0080458Y0011326D01*
X0120958Y0024826D02*
X0121226Y0024126D01*
X0120958Y0024826D02*
X0120958Y0036526D01*
X0072358Y0158026D02*
X0072358Y0158926D01*
X0077758Y0164326D01*
X0087658Y0164326D01*
X0088509Y0164638D01*
X0089458Y0174226D02*
X0098458Y0165226D01*
D19*
X0089458Y0174226D03*
X0103858Y0149926D03*
X0086758Y0118426D03*
X0086252Y0111845D03*
X0078658Y0107626D03*
X0073258Y0106726D03*
X0070558Y0113926D03*
X0059026Y0124726D03*
X0040858Y0123826D03*
X0036358Y0114826D03*
X0032758Y0132826D03*
X0021058Y0132037D03*
X0050758Y0145426D03*
X0061558Y0093226D03*
X0065158Y0082426D03*
X0073258Y0094126D03*
X0080458Y0092326D03*
X0091258Y0091426D03*
X0090358Y0081526D03*
X0086758Y0072526D03*
X0095758Y0068026D03*
X0088558Y0057226D03*
X0092552Y0043613D03*
X0103858Y0049126D03*
X0116458Y0056326D03*
X0127258Y0068026D03*
X0103858Y0086026D03*
X0102058Y0109313D03*
X0057958Y0068194D03*
X0052389Y0071794D03*
X0040858Y0082426D03*
X0039958Y0077026D03*
X0040858Y0060826D03*
X0041589Y0045526D03*
X0041983Y0036583D03*
X0028258Y0050026D03*
X0024715Y0041363D03*
X0019089Y0043726D03*
X0056326Y0019032D03*
X0069489Y0034782D03*
X0074889Y0041026D03*
X0068084Y0047157D03*
X0072921Y0050589D03*
X0062626Y0052557D03*
X0057958Y0043726D03*
X0062121Y0039394D03*
X0072358Y0019426D03*
X0081358Y0022126D03*
X0082258Y0014926D03*
X0087658Y0014026D03*
X0105658Y0025726D03*
X0117358Y0032026D03*
X0117358Y0012226D03*
D20*
X0127131Y0169480D03*
X0024769Y0169480D03*
M02*
