G75*
%MOIN*%
%OFA0B0*%
%FSLAX25Y25*%
%IPPOS*%
%LPD*%
%AMOC8*
5,1,8,0,0,1.08239X$1,22.5*
%
%ADD10C,0.00600*%
%ADD11C,0.00400*%
%ADD12C,0.00500*%
%ADD13C,0.00800*%
%ADD14C,0.00200*%
%ADD15C,0.01000*%
%ADD16R,0.00787X0.05512*%
D10*
X0037948Y0063481D02*
X0040083Y0063481D01*
X0041150Y0064549D01*
X0037948Y0063481D02*
X0036880Y0064549D01*
X0036880Y0068819D01*
X0037948Y0069887D01*
X0040083Y0069887D01*
X0041150Y0068819D01*
X0058045Y0086740D02*
X0058045Y0087740D01*
X0057045Y0087740D01*
X0057045Y0093740D01*
X0058045Y0093740D01*
X0058045Y0094740D01*
X0061545Y0102740D02*
X0065045Y0102740D01*
X0075045Y0102740D01*
X0078545Y0102740D01*
X0082045Y0094740D02*
X0082045Y0093740D01*
X0083045Y0093740D01*
X0083045Y0087740D01*
X0082045Y0087740D01*
X0082045Y0086740D01*
X0078545Y0078740D02*
X0074545Y0078740D01*
X0065045Y0078740D01*
X0061545Y0078740D01*
X0069045Y0090740D02*
X0069047Y0090803D01*
X0069053Y0090865D01*
X0069063Y0090927D01*
X0069076Y0090989D01*
X0069094Y0091049D01*
X0069115Y0091108D01*
X0069140Y0091166D01*
X0069169Y0091222D01*
X0069201Y0091276D01*
X0069236Y0091328D01*
X0069274Y0091377D01*
X0069316Y0091425D01*
X0069360Y0091469D01*
X0069408Y0091511D01*
X0069457Y0091549D01*
X0069509Y0091584D01*
X0069563Y0091616D01*
X0069619Y0091645D01*
X0069677Y0091670D01*
X0069736Y0091691D01*
X0069796Y0091709D01*
X0069858Y0091722D01*
X0069920Y0091732D01*
X0069982Y0091738D01*
X0070045Y0091740D01*
X0070108Y0091738D01*
X0070170Y0091732D01*
X0070232Y0091722D01*
X0070294Y0091709D01*
X0070354Y0091691D01*
X0070413Y0091670D01*
X0070471Y0091645D01*
X0070527Y0091616D01*
X0070581Y0091584D01*
X0070633Y0091549D01*
X0070682Y0091511D01*
X0070730Y0091469D01*
X0070774Y0091425D01*
X0070816Y0091377D01*
X0070854Y0091328D01*
X0070889Y0091276D01*
X0070921Y0091222D01*
X0070950Y0091166D01*
X0070975Y0091108D01*
X0070996Y0091049D01*
X0071014Y0090989D01*
X0071027Y0090927D01*
X0071037Y0090865D01*
X0071043Y0090803D01*
X0071045Y0090740D01*
X0071043Y0090677D01*
X0071037Y0090615D01*
X0071027Y0090553D01*
X0071014Y0090491D01*
X0070996Y0090431D01*
X0070975Y0090372D01*
X0070950Y0090314D01*
X0070921Y0090258D01*
X0070889Y0090204D01*
X0070854Y0090152D01*
X0070816Y0090103D01*
X0070774Y0090055D01*
X0070730Y0090011D01*
X0070682Y0089969D01*
X0070633Y0089931D01*
X0070581Y0089896D01*
X0070527Y0089864D01*
X0070471Y0089835D01*
X0070413Y0089810D01*
X0070354Y0089789D01*
X0070294Y0089771D01*
X0070232Y0089758D01*
X0070170Y0089748D01*
X0070108Y0089742D01*
X0070045Y0089740D01*
X0069982Y0089742D01*
X0069920Y0089748D01*
X0069858Y0089758D01*
X0069796Y0089771D01*
X0069736Y0089789D01*
X0069677Y0089810D01*
X0069619Y0089835D01*
X0069563Y0089864D01*
X0069509Y0089896D01*
X0069457Y0089931D01*
X0069408Y0089969D01*
X0069360Y0090011D01*
X0069316Y0090055D01*
X0069274Y0090103D01*
X0069236Y0090152D01*
X0069201Y0090204D01*
X0069169Y0090258D01*
X0069140Y0090314D01*
X0069115Y0090372D01*
X0069094Y0090431D01*
X0069076Y0090491D01*
X0069063Y0090553D01*
X0069053Y0090615D01*
X0069047Y0090677D01*
X0069045Y0090740D01*
X0063045Y0090740D02*
X0063047Y0090912D01*
X0063053Y0091083D01*
X0063064Y0091255D01*
X0063079Y0091426D01*
X0063098Y0091597D01*
X0063121Y0091767D01*
X0063148Y0091937D01*
X0063180Y0092106D01*
X0063215Y0092274D01*
X0063255Y0092441D01*
X0063299Y0092607D01*
X0063346Y0092772D01*
X0063398Y0092936D01*
X0063454Y0093098D01*
X0063514Y0093259D01*
X0063578Y0093419D01*
X0063646Y0093577D01*
X0063717Y0093733D01*
X0063792Y0093887D01*
X0063872Y0094040D01*
X0063954Y0094190D01*
X0064041Y0094339D01*
X0064131Y0094485D01*
X0064225Y0094629D01*
X0064322Y0094771D01*
X0064423Y0094910D01*
X0064527Y0095047D01*
X0064634Y0095181D01*
X0064745Y0095312D01*
X0064858Y0095441D01*
X0064975Y0095567D01*
X0065095Y0095690D01*
X0065218Y0095810D01*
X0065344Y0095927D01*
X0065473Y0096040D01*
X0065604Y0096151D01*
X0065738Y0096258D01*
X0065875Y0096362D01*
X0066014Y0096463D01*
X0066156Y0096560D01*
X0066300Y0096654D01*
X0066446Y0096744D01*
X0066595Y0096831D01*
X0066745Y0096913D01*
X0066898Y0096993D01*
X0067052Y0097068D01*
X0067208Y0097139D01*
X0067366Y0097207D01*
X0067526Y0097271D01*
X0067687Y0097331D01*
X0067849Y0097387D01*
X0068013Y0097439D01*
X0068178Y0097486D01*
X0068344Y0097530D01*
X0068511Y0097570D01*
X0068679Y0097605D01*
X0068848Y0097637D01*
X0069018Y0097664D01*
X0069188Y0097687D01*
X0069359Y0097706D01*
X0069530Y0097721D01*
X0069702Y0097732D01*
X0069873Y0097738D01*
X0070045Y0097740D01*
X0070217Y0097738D01*
X0070388Y0097732D01*
X0070560Y0097721D01*
X0070731Y0097706D01*
X0070902Y0097687D01*
X0071072Y0097664D01*
X0071242Y0097637D01*
X0071411Y0097605D01*
X0071579Y0097570D01*
X0071746Y0097530D01*
X0071912Y0097486D01*
X0072077Y0097439D01*
X0072241Y0097387D01*
X0072403Y0097331D01*
X0072564Y0097271D01*
X0072724Y0097207D01*
X0072882Y0097139D01*
X0073038Y0097068D01*
X0073192Y0096993D01*
X0073345Y0096913D01*
X0073495Y0096831D01*
X0073644Y0096744D01*
X0073790Y0096654D01*
X0073934Y0096560D01*
X0074076Y0096463D01*
X0074215Y0096362D01*
X0074352Y0096258D01*
X0074486Y0096151D01*
X0074617Y0096040D01*
X0074746Y0095927D01*
X0074872Y0095810D01*
X0074995Y0095690D01*
X0075115Y0095567D01*
X0075232Y0095441D01*
X0075345Y0095312D01*
X0075456Y0095181D01*
X0075563Y0095047D01*
X0075667Y0094910D01*
X0075768Y0094771D01*
X0075865Y0094629D01*
X0075959Y0094485D01*
X0076049Y0094339D01*
X0076136Y0094190D01*
X0076218Y0094040D01*
X0076298Y0093887D01*
X0076373Y0093733D01*
X0076444Y0093577D01*
X0076512Y0093419D01*
X0076576Y0093259D01*
X0076636Y0093098D01*
X0076692Y0092936D01*
X0076744Y0092772D01*
X0076791Y0092607D01*
X0076835Y0092441D01*
X0076875Y0092274D01*
X0076910Y0092106D01*
X0076942Y0091937D01*
X0076969Y0091767D01*
X0076992Y0091597D01*
X0077011Y0091426D01*
X0077026Y0091255D01*
X0077037Y0091083D01*
X0077043Y0090912D01*
X0077045Y0090740D01*
X0077043Y0090568D01*
X0077037Y0090397D01*
X0077026Y0090225D01*
X0077011Y0090054D01*
X0076992Y0089883D01*
X0076969Y0089713D01*
X0076942Y0089543D01*
X0076910Y0089374D01*
X0076875Y0089206D01*
X0076835Y0089039D01*
X0076791Y0088873D01*
X0076744Y0088708D01*
X0076692Y0088544D01*
X0076636Y0088382D01*
X0076576Y0088221D01*
X0076512Y0088061D01*
X0076444Y0087903D01*
X0076373Y0087747D01*
X0076298Y0087593D01*
X0076218Y0087440D01*
X0076136Y0087290D01*
X0076049Y0087141D01*
X0075959Y0086995D01*
X0075865Y0086851D01*
X0075768Y0086709D01*
X0075667Y0086570D01*
X0075563Y0086433D01*
X0075456Y0086299D01*
X0075345Y0086168D01*
X0075232Y0086039D01*
X0075115Y0085913D01*
X0074995Y0085790D01*
X0074872Y0085670D01*
X0074746Y0085553D01*
X0074617Y0085440D01*
X0074486Y0085329D01*
X0074352Y0085222D01*
X0074215Y0085118D01*
X0074076Y0085017D01*
X0073934Y0084920D01*
X0073790Y0084826D01*
X0073644Y0084736D01*
X0073495Y0084649D01*
X0073345Y0084567D01*
X0073192Y0084487D01*
X0073038Y0084412D01*
X0072882Y0084341D01*
X0072724Y0084273D01*
X0072564Y0084209D01*
X0072403Y0084149D01*
X0072241Y0084093D01*
X0072077Y0084041D01*
X0071912Y0083994D01*
X0071746Y0083950D01*
X0071579Y0083910D01*
X0071411Y0083875D01*
X0071242Y0083843D01*
X0071072Y0083816D01*
X0070902Y0083793D01*
X0070731Y0083774D01*
X0070560Y0083759D01*
X0070388Y0083748D01*
X0070217Y0083742D01*
X0070045Y0083740D01*
X0069873Y0083742D01*
X0069702Y0083748D01*
X0069530Y0083759D01*
X0069359Y0083774D01*
X0069188Y0083793D01*
X0069018Y0083816D01*
X0068848Y0083843D01*
X0068679Y0083875D01*
X0068511Y0083910D01*
X0068344Y0083950D01*
X0068178Y0083994D01*
X0068013Y0084041D01*
X0067849Y0084093D01*
X0067687Y0084149D01*
X0067526Y0084209D01*
X0067366Y0084273D01*
X0067208Y0084341D01*
X0067052Y0084412D01*
X0066898Y0084487D01*
X0066745Y0084567D01*
X0066595Y0084649D01*
X0066446Y0084736D01*
X0066300Y0084826D01*
X0066156Y0084920D01*
X0066014Y0085017D01*
X0065875Y0085118D01*
X0065738Y0085222D01*
X0065604Y0085329D01*
X0065473Y0085440D01*
X0065344Y0085553D01*
X0065218Y0085670D01*
X0065095Y0085790D01*
X0064975Y0085913D01*
X0064858Y0086039D01*
X0064745Y0086168D01*
X0064634Y0086299D01*
X0064527Y0086433D01*
X0064423Y0086570D01*
X0064322Y0086709D01*
X0064225Y0086851D01*
X0064131Y0086995D01*
X0064041Y0087141D01*
X0063954Y0087290D01*
X0063872Y0087440D01*
X0063792Y0087593D01*
X0063717Y0087747D01*
X0063646Y0087903D01*
X0063578Y0088061D01*
X0063514Y0088221D01*
X0063454Y0088382D01*
X0063398Y0088544D01*
X0063346Y0088708D01*
X0063299Y0088873D01*
X0063255Y0089039D01*
X0063215Y0089206D01*
X0063180Y0089374D01*
X0063148Y0089543D01*
X0063121Y0089713D01*
X0063098Y0089883D01*
X0063079Y0090054D01*
X0063064Y0090225D01*
X0063053Y0090397D01*
X0063047Y0090568D01*
X0063045Y0090740D01*
X0041150Y0096045D02*
X0040083Y0094977D01*
X0037948Y0094977D01*
X0036880Y0096045D01*
X0037948Y0098180D02*
X0040083Y0098180D01*
X0041150Y0097112D01*
X0041150Y0096045D01*
X0037948Y0098180D02*
X0036880Y0099247D01*
X0036880Y0100315D01*
X0037948Y0101383D01*
X0040083Y0101383D01*
X0041150Y0100315D01*
X0041150Y0118599D02*
X0041150Y0125005D01*
X0039015Y0122870D01*
X0036880Y0125005D01*
X0036880Y0118599D01*
X0037041Y0137744D02*
X0035974Y0137744D01*
X0034906Y0138812D01*
X0034906Y0140947D01*
X0035974Y0142015D01*
X0038109Y0140947D02*
X0038109Y0138812D01*
X0037041Y0137744D01*
X0040244Y0137744D02*
X0041312Y0138812D01*
X0041312Y0140947D01*
X0040244Y0142015D01*
X0039176Y0142015D01*
X0038109Y0140947D01*
X0072320Y0166291D02*
X0072690Y0166291D01*
X0072320Y0166291D02*
X0072320Y0172669D01*
X0072690Y0172669D01*
X0075863Y0172669D02*
X0076234Y0172669D01*
X0079604Y0172669D02*
X0079974Y0172669D01*
X0083147Y0172669D02*
X0083517Y0172669D01*
X0083517Y0166291D01*
X0083147Y0166291D01*
X0079974Y0166291D02*
X0075863Y0166291D01*
X0079887Y0151370D02*
X0079887Y0148220D01*
X0075950Y0149795D01*
X0079887Y0151370D01*
X0122394Y0129676D02*
X0122394Y0126473D01*
X0128800Y0126473D01*
X0126665Y0126473D02*
X0126665Y0129676D01*
X0125597Y0130744D01*
X0123462Y0130744D01*
X0122394Y0129676D01*
X0119014Y0075792D02*
X0116879Y0075792D01*
X0115812Y0074725D01*
X0113636Y0073657D02*
X0111501Y0069387D01*
X0109366Y0073657D01*
X0115812Y0070454D02*
X0116879Y0069387D01*
X0119014Y0069387D01*
X0120082Y0070454D01*
X0120082Y0071522D01*
X0119014Y0072589D01*
X0117947Y0072589D01*
X0119014Y0072589D02*
X0120082Y0073657D01*
X0120082Y0074725D01*
X0119014Y0075792D01*
X0122257Y0070454D02*
X0123325Y0070454D01*
X0123325Y0069387D01*
X0122257Y0069387D01*
X0122257Y0070454D01*
X0125480Y0069387D02*
X0129750Y0069387D01*
X0127615Y0069387D02*
X0127615Y0075792D01*
X0125480Y0073657D01*
X0100745Y0074725D02*
X0100745Y0070454D01*
X0099678Y0069387D01*
X0096475Y0069387D01*
X0096475Y0075792D01*
X0099678Y0075792D01*
X0100745Y0074725D01*
X0094300Y0075792D02*
X0090030Y0075792D01*
X0092165Y0075792D02*
X0092165Y0069387D01*
X0108895Y0013814D02*
X0107827Y0012747D01*
X0107827Y0010612D01*
X0108895Y0009544D01*
X0113165Y0009544D01*
X0114233Y0010612D01*
X0114233Y0012747D01*
X0113165Y0013814D01*
X0111030Y0013814D01*
X0111030Y0011679D01*
D11*
X0069771Y0057022D02*
X0066701Y0057022D01*
X0068236Y0058556D02*
X0068236Y0055487D01*
X0032369Y0045211D02*
X0029300Y0045211D01*
X0019771Y0036549D02*
X0016701Y0036549D01*
X0018236Y0038084D02*
X0018236Y0035015D01*
X0117489Y0137337D02*
X0120558Y0137337D01*
D12*
X0095761Y0133984D02*
X0079761Y0133984D01*
X0079761Y0141984D01*
X0095761Y0141984D01*
X0095761Y0133984D01*
X0095761Y0124268D02*
X0095761Y0116268D01*
X0079761Y0116268D01*
X0079761Y0124268D01*
X0095761Y0124268D01*
X0091572Y0104583D02*
X0107572Y0104583D01*
X0107572Y0096583D01*
X0091572Y0096583D01*
X0091572Y0104583D01*
X0066234Y0116268D02*
X0066234Y0124268D01*
X0050234Y0124268D01*
X0050234Y0116268D01*
X0066234Y0116268D01*
X0066234Y0133984D02*
X0050234Y0133984D01*
X0050234Y0141984D01*
X0066234Y0141984D01*
X0066234Y0133984D01*
X0072604Y0146547D02*
X0072604Y0153043D01*
X0083234Y0153043D01*
X0083234Y0146547D01*
X0072604Y0146547D01*
X0036706Y0055370D02*
X0020706Y0055370D01*
X0020706Y0047370D01*
X0036706Y0047370D01*
X0036706Y0055370D01*
X0036454Y0016000D02*
X0052454Y0016000D01*
X0052454Y0008000D01*
X0036454Y0008000D01*
X0036454Y0016000D01*
X0060076Y0016000D02*
X0060076Y0008000D01*
X0076076Y0008000D01*
X0076076Y0016000D01*
X0060076Y0016000D01*
D13*
X0024237Y0008969D02*
X0021737Y0011469D01*
X0021737Y0016469D01*
X0024237Y0018969D01*
X0021737Y0021469D01*
X0021737Y0026469D01*
X0024237Y0028969D01*
X0021737Y0031469D01*
X0021737Y0036469D01*
X0024237Y0038969D01*
X0029237Y0038969D01*
X0031737Y0036469D01*
X0031737Y0031469D01*
X0029237Y0028969D01*
X0031737Y0026469D01*
X0031737Y0021469D01*
X0029237Y0018969D01*
X0031737Y0016469D01*
X0031737Y0011469D01*
X0029237Y0008969D01*
X0024237Y0008969D01*
X0052308Y0029697D02*
X0078509Y0029697D01*
X0079907Y0031094D01*
X0079907Y0057295D01*
X0052308Y0057295D01*
X0052308Y0029697D01*
X0079908Y0028996D02*
X0079910Y0029045D01*
X0079916Y0029093D01*
X0079926Y0029141D01*
X0079940Y0029188D01*
X0079957Y0029234D01*
X0079978Y0029278D01*
X0080003Y0029320D01*
X0080031Y0029360D01*
X0080063Y0029398D01*
X0080097Y0029433D01*
X0080134Y0029465D01*
X0080173Y0029494D01*
X0080215Y0029520D01*
X0080259Y0029542D01*
X0080304Y0029560D01*
X0080351Y0029575D01*
X0080398Y0029586D01*
X0080447Y0029593D01*
X0080496Y0029596D01*
X0080545Y0029595D01*
X0080593Y0029590D01*
X0080642Y0029581D01*
X0080689Y0029568D01*
X0080735Y0029551D01*
X0080779Y0029531D01*
X0080822Y0029507D01*
X0080863Y0029480D01*
X0080901Y0029449D01*
X0080937Y0029416D01*
X0080969Y0029380D01*
X0080999Y0029341D01*
X0081026Y0029300D01*
X0081049Y0029256D01*
X0081068Y0029211D01*
X0081084Y0029165D01*
X0081096Y0029118D01*
X0081104Y0029069D01*
X0081108Y0029020D01*
X0081108Y0028972D01*
X0081104Y0028923D01*
X0081096Y0028874D01*
X0081084Y0028827D01*
X0081068Y0028781D01*
X0081049Y0028736D01*
X0081026Y0028692D01*
X0080999Y0028651D01*
X0080969Y0028612D01*
X0080937Y0028576D01*
X0080901Y0028543D01*
X0080863Y0028512D01*
X0080822Y0028485D01*
X0080779Y0028461D01*
X0080735Y0028441D01*
X0080689Y0028424D01*
X0080642Y0028411D01*
X0080593Y0028402D01*
X0080545Y0028397D01*
X0080496Y0028396D01*
X0080447Y0028399D01*
X0080398Y0028406D01*
X0080351Y0028417D01*
X0080304Y0028432D01*
X0080259Y0028450D01*
X0080215Y0028472D01*
X0080173Y0028498D01*
X0080134Y0028527D01*
X0080097Y0028559D01*
X0080063Y0028594D01*
X0080031Y0028632D01*
X0080003Y0028672D01*
X0079978Y0028714D01*
X0079957Y0028758D01*
X0079940Y0028804D01*
X0079926Y0028851D01*
X0079916Y0028899D01*
X0079910Y0028947D01*
X0079908Y0028996D01*
X0122013Y0089362D02*
X0122013Y0115740D01*
X0132249Y0115740D01*
X0132249Y0089362D01*
X0122013Y0089362D01*
X0124631Y0132984D02*
X0122131Y0135484D01*
X0122131Y0140484D01*
X0124631Y0142984D01*
X0122131Y0145484D01*
X0122131Y0150484D01*
X0124631Y0152984D01*
X0129631Y0152984D01*
X0132131Y0150484D01*
X0132131Y0145484D01*
X0129631Y0142984D01*
X0132131Y0140484D01*
X0132131Y0135484D01*
X0129631Y0132984D01*
X0124631Y0132984D01*
X0031737Y0139421D02*
X0031737Y0144421D01*
X0029237Y0146921D01*
X0031737Y0149421D01*
X0031737Y0154421D01*
X0029237Y0156921D01*
X0024237Y0156921D01*
X0021737Y0154421D01*
X0021737Y0149421D01*
X0024237Y0146921D01*
X0021737Y0144421D01*
X0021737Y0139421D01*
X0024237Y0136921D01*
X0029237Y0136921D01*
X0031737Y0139421D01*
D14*
X0065045Y0102740D02*
X0065045Y0101740D01*
X0075045Y0101740D01*
X0075045Y0102740D01*
X0074545Y0079740D02*
X0065045Y0079740D01*
X0065045Y0078740D01*
X0074545Y0078740D02*
X0074545Y0079740D01*
D15*
X0032446Y0075976D02*
X0032446Y0067512D01*
X0032446Y0075976D02*
X0030084Y0075976D01*
X0023391Y0075976D02*
X0021029Y0075976D01*
X0021029Y0067512D01*
X0021029Y0093102D02*
X0021029Y0101567D01*
X0023391Y0101567D01*
X0030084Y0101567D02*
X0032446Y0101567D01*
X0032446Y0093102D01*
X0032446Y0120661D02*
X0032446Y0129126D01*
X0030084Y0129126D01*
X0023391Y0129126D02*
X0021029Y0129126D01*
X0021029Y0120661D01*
X0042360Y0160386D02*
X0042360Y0172886D01*
X0044860Y0175386D01*
X0055860Y0175386D02*
X0058360Y0172886D01*
X0058360Y0160386D01*
X0055860Y0160386D01*
X0044860Y0160386D02*
X0042360Y0160386D01*
X0058627Y0178429D02*
X0060989Y0178429D01*
X0059808Y0177248D02*
X0059808Y0179610D01*
X0097478Y0172886D02*
X0097478Y0160386D01*
X0099978Y0160386D01*
X0097478Y0172886D02*
X0099978Y0175386D01*
X0110978Y0175386D02*
X0113478Y0172886D01*
X0113478Y0160386D01*
X0110978Y0160386D01*
X0114926Y0177248D02*
X0114926Y0179610D01*
X0116108Y0178429D02*
X0113745Y0178429D01*
D16*
X0075556Y0149795D03*
M02*
