%
M48
M72
T01C0.02400
T02C0.03543
T03C0.04000
T04C0.11811
%
T01
X24715Y41363
X19089Y43726
X28258Y50026
X41589Y45526
X41983Y36583
X56326Y19032
X69489Y34782
X74889Y41026
X68084Y47157
X72921Y50589
X62626Y52557
X57958Y43726
X62121Y39394
X72358Y19426
X81358Y22126
X82258Y14926
X87658Y14026
X105658Y25726
X117358Y32026
X103858Y49126
X92552Y43613
X88558Y57226
X95758Y68026
X86758Y72526
X90358Y81526
X91258Y91426
X80458Y92326
X73258Y94126
X65158Y82426
X61558Y93226
X73258Y106726
X78658Y107626
X86252Y111845
X86758Y118426
X102058Y109313
X103858Y86026
X127258Y68026
X116458Y56326
X117358Y12226
X57958Y68194
X52389Y71794
X40858Y82426
X39958Y77026
X40858Y60826
X36358Y114826
X40858Y123826
X32758Y132826
X21058Y132037
X50758Y145426
X59026Y124726
X70558Y113926
X103858Y149926
X89458Y174226
T02
X127131Y108457
X127131Y96646
T03
X26737Y13969
X26737Y23969
X26737Y33969
X26737Y141921
X26737Y151921
X127131Y147984
X127131Y137984
T04
X127131Y169480
X24769Y169480
M30
