G75*
%MOIN*%
%OFA0B0*%
%FSLAX25Y25*%
%IPPOS*%
%LPD*%
%AMOC8*
5,1,8,0,0,1.08239X$1,22.5*
%
%ADD10C,0.00500*%
%ADD11C,0.00600*%
%ADD12C,0.04000*%
%ADD13C,0.01000*%
D10*
X0089336Y0033654D02*
X0090517Y0033654D01*
X0089336Y0033654D02*
X0089336Y0053339D01*
X0090517Y0053339D01*
X0091635Y0061087D02*
X0099635Y0061087D01*
X0099635Y0077087D01*
X0091635Y0077087D01*
X0091635Y0061087D01*
X0100753Y0053339D02*
X0101934Y0053339D01*
X0101934Y0033654D01*
X0100753Y0033654D01*
X0099635Y0025906D02*
X0091635Y0025906D01*
X0091635Y0009906D01*
X0099635Y0009906D01*
X0099635Y0025906D01*
X0056328Y0116205D02*
X0048328Y0116205D01*
X0048328Y0132205D01*
X0056328Y0132205D01*
X0056328Y0116205D01*
D11*
X0065478Y0121705D02*
X0067978Y0119205D01*
X0072978Y0119205D01*
X0075478Y0121705D01*
X0075478Y0126705D01*
X0072978Y0129205D01*
X0067978Y0129205D01*
X0065478Y0126705D01*
X0065478Y0121705D01*
X0075478Y0121705D02*
X0077978Y0119205D01*
X0082978Y0119205D01*
X0085478Y0121705D01*
X0085478Y0126705D01*
X0082978Y0129205D01*
X0077978Y0129205D01*
X0075478Y0126705D01*
X0085478Y0126705D02*
X0087978Y0129205D01*
X0092978Y0129205D01*
X0095478Y0126705D01*
X0095478Y0121705D01*
X0092978Y0119205D01*
X0087978Y0119205D01*
X0085478Y0121705D01*
X0095478Y0121705D02*
X0097978Y0119205D01*
X0102978Y0119205D01*
X0105478Y0121705D01*
X0107978Y0119205D01*
X0112978Y0119205D01*
X0115478Y0121705D01*
X0115478Y0126705D01*
X0112978Y0129205D01*
X0107978Y0129205D01*
X0105478Y0126705D01*
X0102978Y0129205D01*
X0097978Y0129205D01*
X0095478Y0126705D01*
X0105478Y0126705D02*
X0105478Y0121705D01*
X0106009Y0154638D02*
X0111009Y0154638D01*
X0113509Y0157138D01*
X0113509Y0162138D01*
X0111009Y0164638D01*
X0106009Y0164638D01*
X0103509Y0162138D01*
X0101009Y0164638D01*
X0096009Y0164638D01*
X0093509Y0162138D01*
X0091009Y0164638D01*
X0086009Y0164638D01*
X0083509Y0162138D01*
X0081009Y0164638D01*
X0076009Y0164638D01*
X0073509Y0162138D01*
X0071009Y0164638D01*
X0066009Y0164638D01*
X0063509Y0162138D01*
X0063509Y0157138D01*
X0066009Y0154638D01*
X0071009Y0154638D01*
X0073509Y0157138D01*
X0073509Y0162138D01*
X0073509Y0157138D02*
X0076009Y0154638D01*
X0081009Y0154638D01*
X0083509Y0157138D01*
X0083509Y0162138D01*
X0083509Y0157138D02*
X0086009Y0154638D01*
X0091009Y0154638D01*
X0093509Y0157138D01*
X0096009Y0154638D01*
X0101009Y0154638D01*
X0103509Y0157138D01*
X0106009Y0154638D01*
X0103509Y0157138D02*
X0103509Y0162138D01*
X0093509Y0162138D02*
X0093509Y0157138D01*
X0031275Y0129805D02*
X0028075Y0129805D01*
X0028075Y0127605D01*
X0028075Y0120805D02*
X0028075Y0118605D01*
X0031275Y0118605D01*
D12*
X0016706Y0076961D02*
X0015706Y0076961D01*
D13*
X0026612Y0060681D02*
X0026612Y0045681D01*
X0029112Y0045681D01*
X0040112Y0045681D02*
X0042612Y0045681D01*
X0042612Y0060681D01*
X0040112Y0063181D01*
X0029112Y0063181D02*
X0026612Y0060681D01*
X0025163Y0065043D02*
X0025163Y0067406D01*
X0023982Y0066224D02*
X0026344Y0066224D01*
M02*
