G75*
%MOIN*%
%OFA0B0*%
%FSLAX25Y25*%
%IPPOS*%
%LPD*%
%AMOC8*
5,1,8,0,0,1.08239X$1,22.5*
%
%ADD10R,0.05800X0.08300*%
%ADD11C,0.08200*%
%ADD12R,0.10800X0.05800*%
%ADD13R,0.09800X0.06800*%
%ADD14R,0.05800X0.03000*%
%ADD15R,0.03000X0.05800*%
%ADD16R,0.02965X0.05524*%
%ADD17R,0.07099X0.11800*%
%ADD18R,0.04383X0.05603*%
%ADD19R,0.03950X0.04737*%
%ADD20R,0.06706X0.03556*%
%ADD21C,0.04343*%
%ADD22R,0.06706X0.07099*%
%ADD23R,0.05524X0.05524*%
%ADD24C,0.04800*%
%ADD25OC8,0.16611*%
D10*
X0037954Y0012000D03*
X0050954Y0012000D03*
X0061576Y0012000D03*
X0074576Y0012000D03*
X0035206Y0051370D03*
X0022206Y0051370D03*
X0051734Y0120268D03*
X0064734Y0120268D03*
X0064734Y0137984D03*
X0051734Y0137984D03*
X0081261Y0137984D03*
X0094261Y0137984D03*
X0094261Y0120268D03*
X0081261Y0120268D03*
X0093072Y0100583D03*
X0106072Y0100583D03*
D11*
X0026737Y0013969D03*
X0026737Y0023969D03*
X0026737Y0033969D03*
X0026737Y0141921D03*
X0026737Y0151921D03*
X0127131Y0147984D03*
X0127131Y0137984D03*
D12*
X0125163Y0062591D03*
X0125163Y0052591D03*
X0125163Y0042591D03*
X0125163Y0032591D03*
X0125163Y0022591D03*
X0125163Y0012591D03*
D13*
X0083045Y0081740D03*
X0083045Y0099740D03*
X0057045Y0099740D03*
X0057045Y0081740D03*
D14*
X0049208Y0054520D03*
X0049208Y0051370D03*
X0049208Y0048220D03*
X0049208Y0045071D03*
X0049208Y0041921D03*
X0049208Y0038772D03*
X0049208Y0035622D03*
X0049208Y0032472D03*
X0083008Y0032472D03*
X0083008Y0035622D03*
X0083008Y0038772D03*
X0083008Y0041921D03*
X0083008Y0045071D03*
X0083008Y0048220D03*
X0083008Y0051370D03*
X0083008Y0054520D03*
D15*
X0077131Y0060396D03*
X0073982Y0060396D03*
X0070832Y0060396D03*
X0067682Y0060396D03*
X0064533Y0060396D03*
X0061383Y0060396D03*
X0058234Y0060396D03*
X0055084Y0060396D03*
X0055084Y0026596D03*
X0058234Y0026596D03*
X0061383Y0026596D03*
X0064533Y0026596D03*
X0067682Y0026596D03*
X0070832Y0026596D03*
X0073982Y0026596D03*
X0077131Y0026596D03*
D16*
X0074178Y0164362D03*
X0081659Y0164362D03*
X0081659Y0174598D03*
X0077919Y0174598D03*
X0074178Y0174598D03*
D17*
X0050360Y0175386D03*
X0050360Y0160449D03*
X0105478Y0160449D03*
X0105478Y0175386D03*
D18*
X0084365Y0149795D03*
X0071472Y0149795D03*
D19*
X0122800Y0118890D03*
X0131462Y0118890D03*
X0131462Y0086213D03*
X0122800Y0086213D03*
D20*
X0118273Y0093693D03*
X0118273Y0105504D03*
X0118273Y0111409D03*
D21*
X0127131Y0108457D03*
X0127131Y0096646D03*
D22*
X0026737Y0100583D03*
X0026737Y0074992D03*
X0026737Y0128142D03*
D23*
X0022800Y0115051D03*
X0030675Y0115051D03*
X0030675Y0087492D03*
X0022800Y0087492D03*
X0022800Y0061902D03*
X0030675Y0061902D03*
D24*
X0040858Y0060826D03*
X0052389Y0071794D03*
X0057958Y0068194D03*
X0065158Y0082426D03*
X0061558Y0093226D03*
X0073258Y0094126D03*
X0080458Y0092326D03*
X0091258Y0091426D03*
X0090358Y0081526D03*
X0086758Y0072526D03*
X0095758Y0068026D03*
X0088558Y0057226D03*
X0092552Y0043613D03*
X0103858Y0049126D03*
X0116458Y0056326D03*
X0127258Y0068026D03*
X0103858Y0086026D03*
X0102058Y0109313D03*
X0086252Y0111845D03*
X0086758Y0118426D03*
X0078658Y0107626D03*
X0073258Y0106726D03*
X0070558Y0113926D03*
X0059026Y0124726D03*
X0040858Y0123826D03*
X0036358Y0114826D03*
X0032758Y0132826D03*
X0021058Y0132037D03*
X0050758Y0145426D03*
X0089458Y0174226D03*
X0103858Y0149926D03*
X0040858Y0082426D03*
X0039958Y0077026D03*
X0062626Y0052557D03*
X0068084Y0047157D03*
X0072921Y0050589D03*
X0074889Y0041026D03*
X0069489Y0034782D03*
X0062121Y0039394D03*
X0057958Y0043726D03*
X0041589Y0045526D03*
X0041983Y0036583D03*
X0028258Y0050026D03*
X0024715Y0041363D03*
X0019089Y0043726D03*
X0056326Y0019032D03*
X0072358Y0019426D03*
X0081358Y0022126D03*
X0082258Y0014926D03*
X0087658Y0014026D03*
X0105658Y0025726D03*
X0117358Y0032026D03*
X0117358Y0012226D03*
D25*
X0127131Y0169480D03*
X0024769Y0169480D03*
M02*
