%
M48
M72
T01C0.02400
%
T01
X95894Y41894
X101294Y47294
X108494Y78794
X137294Y106694
X142694Y106694
X148094Y112994
X151694Y106694
X157094Y109394
X166094Y102194
X171494Y104894
X170594Y97694
X178694Y108494
X154394Y120194
X140894Y141794
X131894Y131894
X121094Y120194
X106694Y139094
X114794Y146294
X118394Y142694
X106694Y157994
X118394Y169694
X130994Y158894
X134594Y162494
X138194Y154394
X166094Y156194
X178694Y154394
X184094Y163394
X200294Y168794
X203894Y164294
X218294Y171494
X204794Y178694
X220094Y153494
X230894Y95894
X212894Y76994
X209294Y85994
X238094Y43694
X234494Y23894
X193094Y26594
X148094Y82394
X132794Y34694
X134594Y25694
X91394Y135494
X67994Y189494
X69794Y211994
X91394Y212894
X94994Y202094
X129194Y238994
X134594Y238994
X112994Y250694
X211094Y250694
M30
