G75*
%MOIN*%
%OFA0B0*%
%FSLAX25Y25*%
%IPPOS*%
%LPD*%
%AMOC8*
5,1,8,0,0,1.08239X$1,22.5*
%
%ADD10C,0.00500*%
%ADD11C,0.00600*%
%ADD12C,0.00800*%
%ADD13C,0.04000*%
%ADD14C,0.00200*%
%ADD15C,0.01000*%
%ADD16R,0.05512X0.00787*%
%ADD17C,0.00700*%
D10*
X0044969Y0034008D02*
X0044969Y0042008D01*
X0060969Y0042008D01*
X0060969Y0034008D01*
X0044969Y0034008D01*
X0042323Y0067606D02*
X0034323Y0067606D01*
X0034323Y0083606D01*
X0042323Y0083606D01*
X0042323Y0067606D01*
X0022835Y0068236D02*
X0014835Y0068236D01*
X0014835Y0084236D01*
X0022835Y0084236D01*
X0022835Y0068236D01*
X0022638Y0098354D02*
X0014638Y0098354D01*
X0014638Y0114354D01*
X0022638Y0114354D01*
X0022638Y0098354D01*
X0034835Y0098276D02*
X0042835Y0098276D01*
X0042835Y0114276D01*
X0034835Y0114276D01*
X0034835Y0098276D01*
X0023110Y0126858D02*
X0015110Y0126858D01*
X0015110Y0142858D01*
X0023110Y0142858D01*
X0023110Y0126858D01*
X0035031Y0128748D02*
X0035031Y0144748D01*
X0043031Y0144748D01*
X0043031Y0128748D01*
X0035031Y0128748D01*
X0067063Y0107772D02*
X0068244Y0107772D01*
X0067063Y0107772D02*
X0067063Y0088087D01*
X0068244Y0088087D01*
X0078480Y0088087D02*
X0079661Y0088087D01*
X0079661Y0107772D01*
X0078480Y0107772D01*
X0115661Y0086874D02*
X0115661Y0070874D01*
X0123661Y0070874D01*
X0123661Y0086874D01*
X0115661Y0086874D01*
X0134598Y0087701D02*
X0134598Y0071701D01*
X0142598Y0071701D01*
X0142598Y0087701D01*
X0134598Y0087701D01*
X0167906Y0130598D02*
X0167906Y0146598D01*
X0175906Y0146598D01*
X0175906Y0130598D01*
X0167906Y0130598D01*
X0189047Y0131346D02*
X0189047Y0147346D01*
X0197047Y0147346D01*
X0197047Y0131346D01*
X0189047Y0131346D01*
X0117598Y0192606D02*
X0109598Y0192606D01*
X0109598Y0208606D01*
X0117598Y0208606D01*
X0117598Y0192606D01*
X0094012Y0194898D02*
X0087516Y0194898D01*
X0087516Y0205528D01*
X0094012Y0205528D01*
X0094012Y0194898D01*
X0073539Y0195291D02*
X0067043Y0195291D01*
X0067043Y0205921D01*
X0073539Y0205921D01*
X0073539Y0195291D01*
D11*
X0071866Y0198638D02*
X0068717Y0198638D01*
X0070291Y0202575D01*
X0071866Y0198638D01*
X0089189Y0198244D02*
X0090764Y0202181D01*
X0092339Y0198244D01*
X0089189Y0198244D01*
X0076236Y0175102D02*
X0069858Y0175102D01*
X0069858Y0174732D01*
X0069858Y0171559D02*
X0069858Y0171189D01*
X0069858Y0167819D02*
X0069858Y0167449D01*
X0069858Y0164276D02*
X0069858Y0163906D01*
X0076236Y0163906D01*
X0076236Y0164276D01*
X0076236Y0167449D02*
X0076236Y0171559D01*
X0076236Y0174732D02*
X0076236Y0175102D01*
X0075965Y0141206D02*
X0072965Y0141206D01*
X0072965Y0129806D01*
X0075965Y0129806D01*
X0075965Y0141206D01*
X0163409Y0183051D02*
X0163409Y0187051D01*
X0163409Y0196551D01*
X0163409Y0200051D01*
X0171409Y0203551D02*
X0172409Y0203551D01*
X0172409Y0204551D01*
X0178409Y0204551D01*
X0178409Y0203551D01*
X0179409Y0203551D01*
X0187409Y0200051D02*
X0187409Y0196551D01*
X0187409Y0186551D01*
X0187409Y0183051D01*
X0179409Y0179551D02*
X0178409Y0179551D01*
X0178409Y0178551D01*
X0172409Y0178551D01*
X0172409Y0179551D01*
X0171409Y0179551D01*
X0174409Y0191551D02*
X0174411Y0191614D01*
X0174417Y0191676D01*
X0174427Y0191738D01*
X0174440Y0191800D01*
X0174458Y0191860D01*
X0174479Y0191919D01*
X0174504Y0191977D01*
X0174533Y0192033D01*
X0174565Y0192087D01*
X0174600Y0192139D01*
X0174638Y0192188D01*
X0174680Y0192236D01*
X0174724Y0192280D01*
X0174772Y0192322D01*
X0174821Y0192360D01*
X0174873Y0192395D01*
X0174927Y0192427D01*
X0174983Y0192456D01*
X0175041Y0192481D01*
X0175100Y0192502D01*
X0175160Y0192520D01*
X0175222Y0192533D01*
X0175284Y0192543D01*
X0175346Y0192549D01*
X0175409Y0192551D01*
X0175472Y0192549D01*
X0175534Y0192543D01*
X0175596Y0192533D01*
X0175658Y0192520D01*
X0175718Y0192502D01*
X0175777Y0192481D01*
X0175835Y0192456D01*
X0175891Y0192427D01*
X0175945Y0192395D01*
X0175997Y0192360D01*
X0176046Y0192322D01*
X0176094Y0192280D01*
X0176138Y0192236D01*
X0176180Y0192188D01*
X0176218Y0192139D01*
X0176253Y0192087D01*
X0176285Y0192033D01*
X0176314Y0191977D01*
X0176339Y0191919D01*
X0176360Y0191860D01*
X0176378Y0191800D01*
X0176391Y0191738D01*
X0176401Y0191676D01*
X0176407Y0191614D01*
X0176409Y0191551D01*
X0176407Y0191488D01*
X0176401Y0191426D01*
X0176391Y0191364D01*
X0176378Y0191302D01*
X0176360Y0191242D01*
X0176339Y0191183D01*
X0176314Y0191125D01*
X0176285Y0191069D01*
X0176253Y0191015D01*
X0176218Y0190963D01*
X0176180Y0190914D01*
X0176138Y0190866D01*
X0176094Y0190822D01*
X0176046Y0190780D01*
X0175997Y0190742D01*
X0175945Y0190707D01*
X0175891Y0190675D01*
X0175835Y0190646D01*
X0175777Y0190621D01*
X0175718Y0190600D01*
X0175658Y0190582D01*
X0175596Y0190569D01*
X0175534Y0190559D01*
X0175472Y0190553D01*
X0175409Y0190551D01*
X0175346Y0190553D01*
X0175284Y0190559D01*
X0175222Y0190569D01*
X0175160Y0190582D01*
X0175100Y0190600D01*
X0175041Y0190621D01*
X0174983Y0190646D01*
X0174927Y0190675D01*
X0174873Y0190707D01*
X0174821Y0190742D01*
X0174772Y0190780D01*
X0174724Y0190822D01*
X0174680Y0190866D01*
X0174638Y0190914D01*
X0174600Y0190963D01*
X0174565Y0191015D01*
X0174533Y0191069D01*
X0174504Y0191125D01*
X0174479Y0191183D01*
X0174458Y0191242D01*
X0174440Y0191302D01*
X0174427Y0191364D01*
X0174417Y0191426D01*
X0174411Y0191488D01*
X0174409Y0191551D01*
X0168409Y0191551D02*
X0168411Y0191723D01*
X0168417Y0191894D01*
X0168428Y0192066D01*
X0168443Y0192237D01*
X0168462Y0192408D01*
X0168485Y0192578D01*
X0168512Y0192748D01*
X0168544Y0192917D01*
X0168579Y0193085D01*
X0168619Y0193252D01*
X0168663Y0193418D01*
X0168710Y0193583D01*
X0168762Y0193747D01*
X0168818Y0193909D01*
X0168878Y0194070D01*
X0168942Y0194230D01*
X0169010Y0194388D01*
X0169081Y0194544D01*
X0169156Y0194698D01*
X0169236Y0194851D01*
X0169318Y0195001D01*
X0169405Y0195150D01*
X0169495Y0195296D01*
X0169589Y0195440D01*
X0169686Y0195582D01*
X0169787Y0195721D01*
X0169891Y0195858D01*
X0169998Y0195992D01*
X0170109Y0196123D01*
X0170222Y0196252D01*
X0170339Y0196378D01*
X0170459Y0196501D01*
X0170582Y0196621D01*
X0170708Y0196738D01*
X0170837Y0196851D01*
X0170968Y0196962D01*
X0171102Y0197069D01*
X0171239Y0197173D01*
X0171378Y0197274D01*
X0171520Y0197371D01*
X0171664Y0197465D01*
X0171810Y0197555D01*
X0171959Y0197642D01*
X0172109Y0197724D01*
X0172262Y0197804D01*
X0172416Y0197879D01*
X0172572Y0197950D01*
X0172730Y0198018D01*
X0172890Y0198082D01*
X0173051Y0198142D01*
X0173213Y0198198D01*
X0173377Y0198250D01*
X0173542Y0198297D01*
X0173708Y0198341D01*
X0173875Y0198381D01*
X0174043Y0198416D01*
X0174212Y0198448D01*
X0174382Y0198475D01*
X0174552Y0198498D01*
X0174723Y0198517D01*
X0174894Y0198532D01*
X0175066Y0198543D01*
X0175237Y0198549D01*
X0175409Y0198551D01*
X0175581Y0198549D01*
X0175752Y0198543D01*
X0175924Y0198532D01*
X0176095Y0198517D01*
X0176266Y0198498D01*
X0176436Y0198475D01*
X0176606Y0198448D01*
X0176775Y0198416D01*
X0176943Y0198381D01*
X0177110Y0198341D01*
X0177276Y0198297D01*
X0177441Y0198250D01*
X0177605Y0198198D01*
X0177767Y0198142D01*
X0177928Y0198082D01*
X0178088Y0198018D01*
X0178246Y0197950D01*
X0178402Y0197879D01*
X0178556Y0197804D01*
X0178709Y0197724D01*
X0178859Y0197642D01*
X0179008Y0197555D01*
X0179154Y0197465D01*
X0179298Y0197371D01*
X0179440Y0197274D01*
X0179579Y0197173D01*
X0179716Y0197069D01*
X0179850Y0196962D01*
X0179981Y0196851D01*
X0180110Y0196738D01*
X0180236Y0196621D01*
X0180359Y0196501D01*
X0180479Y0196378D01*
X0180596Y0196252D01*
X0180709Y0196123D01*
X0180820Y0195992D01*
X0180927Y0195858D01*
X0181031Y0195721D01*
X0181132Y0195582D01*
X0181229Y0195440D01*
X0181323Y0195296D01*
X0181413Y0195150D01*
X0181500Y0195001D01*
X0181582Y0194851D01*
X0181662Y0194698D01*
X0181737Y0194544D01*
X0181808Y0194388D01*
X0181876Y0194230D01*
X0181940Y0194070D01*
X0182000Y0193909D01*
X0182056Y0193747D01*
X0182108Y0193583D01*
X0182155Y0193418D01*
X0182199Y0193252D01*
X0182239Y0193085D01*
X0182274Y0192917D01*
X0182306Y0192748D01*
X0182333Y0192578D01*
X0182356Y0192408D01*
X0182375Y0192237D01*
X0182390Y0192066D01*
X0182401Y0191894D01*
X0182407Y0191723D01*
X0182409Y0191551D01*
X0182407Y0191379D01*
X0182401Y0191208D01*
X0182390Y0191036D01*
X0182375Y0190865D01*
X0182356Y0190694D01*
X0182333Y0190524D01*
X0182306Y0190354D01*
X0182274Y0190185D01*
X0182239Y0190017D01*
X0182199Y0189850D01*
X0182155Y0189684D01*
X0182108Y0189519D01*
X0182056Y0189355D01*
X0182000Y0189193D01*
X0181940Y0189032D01*
X0181876Y0188872D01*
X0181808Y0188714D01*
X0181737Y0188558D01*
X0181662Y0188404D01*
X0181582Y0188251D01*
X0181500Y0188101D01*
X0181413Y0187952D01*
X0181323Y0187806D01*
X0181229Y0187662D01*
X0181132Y0187520D01*
X0181031Y0187381D01*
X0180927Y0187244D01*
X0180820Y0187110D01*
X0180709Y0186979D01*
X0180596Y0186850D01*
X0180479Y0186724D01*
X0180359Y0186601D01*
X0180236Y0186481D01*
X0180110Y0186364D01*
X0179981Y0186251D01*
X0179850Y0186140D01*
X0179716Y0186033D01*
X0179579Y0185929D01*
X0179440Y0185828D01*
X0179298Y0185731D01*
X0179154Y0185637D01*
X0179008Y0185547D01*
X0178859Y0185460D01*
X0178709Y0185378D01*
X0178556Y0185298D01*
X0178402Y0185223D01*
X0178246Y0185152D01*
X0178088Y0185084D01*
X0177928Y0185020D01*
X0177767Y0184960D01*
X0177605Y0184904D01*
X0177441Y0184852D01*
X0177276Y0184805D01*
X0177110Y0184761D01*
X0176943Y0184721D01*
X0176775Y0184686D01*
X0176606Y0184654D01*
X0176436Y0184627D01*
X0176266Y0184604D01*
X0176095Y0184585D01*
X0175924Y0184570D01*
X0175752Y0184559D01*
X0175581Y0184553D01*
X0175409Y0184551D01*
X0175237Y0184553D01*
X0175066Y0184559D01*
X0174894Y0184570D01*
X0174723Y0184585D01*
X0174552Y0184604D01*
X0174382Y0184627D01*
X0174212Y0184654D01*
X0174043Y0184686D01*
X0173875Y0184721D01*
X0173708Y0184761D01*
X0173542Y0184805D01*
X0173377Y0184852D01*
X0173213Y0184904D01*
X0173051Y0184960D01*
X0172890Y0185020D01*
X0172730Y0185084D01*
X0172572Y0185152D01*
X0172416Y0185223D01*
X0172262Y0185298D01*
X0172109Y0185378D01*
X0171959Y0185460D01*
X0171810Y0185547D01*
X0171664Y0185637D01*
X0171520Y0185731D01*
X0171378Y0185828D01*
X0171239Y0185929D01*
X0171102Y0186033D01*
X0170968Y0186140D01*
X0170837Y0186251D01*
X0170708Y0186364D01*
X0170582Y0186481D01*
X0170459Y0186601D01*
X0170339Y0186724D01*
X0170222Y0186850D01*
X0170109Y0186979D01*
X0169998Y0187110D01*
X0169891Y0187244D01*
X0169787Y0187381D01*
X0169686Y0187520D01*
X0169589Y0187662D01*
X0169495Y0187806D01*
X0169405Y0187952D01*
X0169318Y0188101D01*
X0169236Y0188251D01*
X0169156Y0188404D01*
X0169081Y0188558D01*
X0169010Y0188714D01*
X0168942Y0188872D01*
X0168878Y0189032D01*
X0168818Y0189193D01*
X0168762Y0189355D01*
X0168710Y0189519D01*
X0168663Y0189684D01*
X0168619Y0189850D01*
X0168579Y0190017D01*
X0168544Y0190185D01*
X0168512Y0190354D01*
X0168485Y0190524D01*
X0168462Y0190694D01*
X0168443Y0190865D01*
X0168428Y0191036D01*
X0168417Y0191208D01*
X0168411Y0191379D01*
X0168409Y0191551D01*
X0178321Y0106797D02*
X0178321Y0104597D01*
X0178321Y0106797D02*
X0181521Y0106797D01*
X0178321Y0097797D02*
X0178321Y0095597D01*
X0181521Y0095597D01*
D12*
X0143539Y0117516D02*
X0115941Y0117516D01*
X0115941Y0143717D01*
X0117339Y0145114D01*
X0143539Y0145114D01*
X0143539Y0117516D01*
X0114740Y0145815D02*
X0114742Y0145864D01*
X0114748Y0145912D01*
X0114758Y0145960D01*
X0114772Y0146007D01*
X0114789Y0146053D01*
X0114810Y0146097D01*
X0114835Y0146139D01*
X0114863Y0146179D01*
X0114895Y0146217D01*
X0114929Y0146252D01*
X0114966Y0146284D01*
X0115005Y0146313D01*
X0115047Y0146339D01*
X0115091Y0146361D01*
X0115136Y0146379D01*
X0115183Y0146394D01*
X0115230Y0146405D01*
X0115279Y0146412D01*
X0115328Y0146415D01*
X0115377Y0146414D01*
X0115425Y0146409D01*
X0115474Y0146400D01*
X0115521Y0146387D01*
X0115567Y0146370D01*
X0115611Y0146350D01*
X0115654Y0146326D01*
X0115695Y0146299D01*
X0115733Y0146268D01*
X0115769Y0146235D01*
X0115801Y0146199D01*
X0115831Y0146160D01*
X0115858Y0146119D01*
X0115881Y0146075D01*
X0115900Y0146030D01*
X0115916Y0145984D01*
X0115928Y0145937D01*
X0115936Y0145888D01*
X0115940Y0145839D01*
X0115940Y0145791D01*
X0115936Y0145742D01*
X0115928Y0145693D01*
X0115916Y0145646D01*
X0115900Y0145600D01*
X0115881Y0145555D01*
X0115858Y0145511D01*
X0115831Y0145470D01*
X0115801Y0145431D01*
X0115769Y0145395D01*
X0115733Y0145362D01*
X0115695Y0145331D01*
X0115654Y0145304D01*
X0115611Y0145280D01*
X0115567Y0145260D01*
X0115521Y0145243D01*
X0115474Y0145230D01*
X0115425Y0145221D01*
X0115377Y0145216D01*
X0115328Y0145215D01*
X0115279Y0145218D01*
X0115230Y0145225D01*
X0115183Y0145236D01*
X0115136Y0145251D01*
X0115091Y0145269D01*
X0115047Y0145291D01*
X0115005Y0145317D01*
X0114966Y0145346D01*
X0114929Y0145378D01*
X0114895Y0145413D01*
X0114863Y0145451D01*
X0114835Y0145491D01*
X0114810Y0145533D01*
X0114789Y0145577D01*
X0114772Y0145623D01*
X0114758Y0145670D01*
X0114748Y0145718D01*
X0114742Y0145766D01*
X0114740Y0145815D01*
X0032496Y0164780D02*
X0031315Y0164780D01*
X0032496Y0164780D02*
X0032496Y0173047D01*
X0032496Y0188795D02*
X0032496Y0197457D01*
X0030921Y0197457D01*
X0015173Y0197457D02*
X0012417Y0197457D01*
X0012417Y0164780D01*
X0015173Y0164780D01*
X0014937Y0219031D02*
X0012181Y0219031D01*
X0012181Y0251709D01*
X0014937Y0251709D01*
X0030685Y0251709D02*
X0032260Y0251709D01*
X0032260Y0243047D01*
X0032260Y0227299D02*
X0032260Y0219031D01*
X0031079Y0219031D01*
X0217654Y0217102D02*
X0217654Y0213953D01*
X0231433Y0213953D01*
X0227496Y0217102D02*
X0217654Y0217102D01*
X0227496Y0217102D02*
X0227496Y0221827D01*
X0247181Y0221827D02*
X0247181Y0245449D01*
X0231433Y0253323D02*
X0217654Y0253323D01*
X0217654Y0250173D01*
X0227496Y0250173D01*
X0227496Y0245449D01*
D13*
X0208291Y0114780D02*
X0207291Y0114780D01*
D14*
X0187409Y0186551D02*
X0186409Y0186551D01*
X0186409Y0196551D01*
X0187409Y0196551D01*
X0164409Y0196551D02*
X0164409Y0187051D01*
X0163409Y0187051D01*
X0163409Y0196551D02*
X0164409Y0196551D01*
D15*
X0102969Y0248531D02*
X0100606Y0248531D01*
X0101787Y0247350D02*
X0101787Y0249713D01*
X0097839Y0245488D02*
X0100339Y0242988D01*
X0100339Y0230488D01*
X0097839Y0230488D01*
X0086839Y0230488D02*
X0084339Y0230488D01*
X0084339Y0242988D01*
X0086839Y0245488D01*
X0074228Y0248138D02*
X0071866Y0248138D01*
X0073047Y0246957D02*
X0073047Y0249319D01*
X0069098Y0245094D02*
X0071598Y0242594D01*
X0071598Y0230094D01*
X0069098Y0230094D01*
X0058098Y0230094D02*
X0055598Y0230094D01*
X0055598Y0242594D01*
X0058098Y0245094D01*
X0191945Y0069398D02*
X0191945Y0067035D01*
X0193126Y0068217D02*
X0190764Y0068217D01*
X0187996Y0065173D02*
X0190496Y0062673D01*
X0190496Y0047673D01*
X0187996Y0047673D01*
X0176996Y0047673D02*
X0174496Y0047673D01*
X0174496Y0062673D01*
X0176996Y0065173D01*
D16*
X0090764Y0202575D03*
X0070291Y0202969D03*
D17*
X0230724Y0198126D02*
X0230724Y0195626D01*
X0230724Y0198126D02*
X0240567Y0198126D01*
X0240567Y0195626D01*
X0240567Y0190126D02*
X0240567Y0186126D01*
X0240567Y0180126D02*
X0240567Y0176126D01*
X0240567Y0170126D02*
X0240567Y0166126D01*
X0240567Y0160126D02*
X0240567Y0156126D01*
X0240567Y0150126D02*
X0240567Y0146126D01*
X0240567Y0140626D02*
X0240567Y0138126D01*
X0230724Y0138126D01*
X0230724Y0140626D01*
X0230724Y0146126D02*
X0230724Y0150126D01*
X0230724Y0156126D02*
X0230724Y0160126D01*
X0230724Y0166126D02*
X0230724Y0170126D01*
X0230724Y0176126D02*
X0230724Y0180126D01*
X0230724Y0186126D02*
X0230724Y0190126D01*
M02*
