G75*
%MOIN*%
%OFA0B0*%
%FSLAX25Y25*%
%IPPOS*%
%LPD*%
%AMOC8*
5,1,8,0,0,1.08239X$1,22.5*
%
%ADD10C,0.00500*%
%ADD11C,0.00600*%
%ADD12C,0.04000*%
%ADD13C,0.01000*%
D10*
X0091304Y0031685D02*
X0092486Y0031685D01*
X0091304Y0031685D02*
X0091304Y0051370D01*
X0092486Y0051370D01*
X0093604Y0057150D02*
X0101604Y0057150D01*
X0101604Y0073150D01*
X0093604Y0073150D01*
X0093604Y0057150D01*
X0102722Y0051370D02*
X0103903Y0051370D01*
X0103903Y0031685D01*
X0102722Y0031685D01*
X0101604Y0023937D02*
X0093604Y0023937D01*
X0093604Y0007937D01*
X0101604Y0007937D01*
X0101604Y0023937D01*
X0056391Y0128079D02*
X0040391Y0128079D01*
X0040391Y0136079D01*
X0056391Y0136079D01*
X0056391Y0128079D01*
D11*
X0025369Y0076655D02*
X0022169Y0076655D01*
X0022169Y0074455D01*
X0022169Y0067655D02*
X0022169Y0065455D01*
X0025369Y0065455D01*
D12*
X0016706Y0086803D02*
X0015706Y0086803D01*
D13*
X0046639Y0059118D02*
X0061639Y0059118D01*
X0064139Y0061618D01*
X0064139Y0072618D02*
X0061639Y0075118D01*
X0046639Y0075118D01*
X0046639Y0072618D01*
X0046639Y0061618D02*
X0046639Y0059118D01*
X0066001Y0076567D02*
X0068363Y0076567D01*
X0067182Y0077748D02*
X0067182Y0075386D01*
M02*
