%
M48
M72
T01C0.02362
T02C0.02400
T03C0.04000
T04C0.11811
%
T01
X131068Y108457
X89730Y171449
T02
X68076Y143890
X64139Y163575
X39958Y105826
X37258Y78826
X36580Y59244
X55258Y75563
X79221Y89906
X103509Y86803
X109415Y69087
X123194Y88772
X87489Y47326
X83158Y54863
X65158Y46257
X64426Y38157
X56265Y43496
X50360Y33654
X45189Y12226
X68076Y14757
X82089Y19594
X87658Y14026
X108352Y10031
X111058Y34726
X129226Y33994
T03
X20832Y35622
X20832Y45622
X20832Y55622
X24769Y137984
X24769Y147984
X127131Y147984
X127131Y137984
T04
X127131Y169480
X24769Y169480
M30
