G75*
%MOIN*%
%OFA0B0*%
%FSLAX25Y25*%
%IPPOS*%
%LPD*%
%AMOC8*
5,1,8,0,0,1.08239X$1,22.5*
%
%ADD10R,0.05800X0.08300*%
%ADD11R,0.04300X0.03900*%
%ADD12C,0.08200*%
%ADD13R,0.10800X0.05800*%
%ADD14R,0.09800X0.06800*%
%ADD15R,0.05800X0.03000*%
%ADD16R,0.03000X0.05800*%
%ADD17R,0.02965X0.05524*%
%ADD18R,0.07099X0.11800*%
%ADD19R,0.04383X0.05603*%
%ADD20R,0.08300X0.05800*%
%ADD21R,0.05603X0.04383*%
%ADD22C,0.04800*%
%ADD23C,0.04762*%
%ADD24OC8,0.16611*%
D10*
X0039923Y0012000D03*
X0052923Y0012000D03*
X0061576Y0012000D03*
X0074576Y0012000D03*
X0043080Y0098614D03*
X0030080Y0098614D03*
X0030080Y0118299D03*
X0043080Y0118299D03*
X0069450Y0114362D03*
X0082450Y0114362D03*
X0082450Y0134047D03*
X0069450Y0134047D03*
X0097009Y0137984D03*
X0110009Y0137984D03*
X0108820Y0118299D03*
X0121820Y0118299D03*
X0121820Y0098614D03*
X0108820Y0098614D03*
D11*
X0060265Y0134084D03*
X0060265Y0141684D03*
X0052265Y0137884D03*
D12*
X0024769Y0137984D03*
X0024769Y0147984D03*
X0020832Y0055622D03*
X0020832Y0045622D03*
X0020832Y0035622D03*
X0127131Y0137984D03*
X0127131Y0147984D03*
D13*
X0119257Y0064559D03*
X0119257Y0054559D03*
X0119257Y0044559D03*
X0119257Y0034559D03*
X0119257Y0024559D03*
X0119257Y0014559D03*
D14*
X0088950Y0081740D03*
X0088950Y0099740D03*
X0062950Y0099740D03*
X0062950Y0081740D03*
D15*
X0077102Y0050583D03*
X0077102Y0047433D03*
X0077102Y0044283D03*
X0077102Y0041134D03*
X0077102Y0037984D03*
X0077102Y0034835D03*
X0077102Y0031685D03*
X0077102Y0028535D03*
X0043302Y0028535D03*
X0043302Y0031685D03*
X0043302Y0034835D03*
X0043302Y0037984D03*
X0043302Y0041134D03*
X0043302Y0044283D03*
X0043302Y0047433D03*
X0043302Y0050583D03*
D16*
X0049178Y0056459D03*
X0052328Y0056459D03*
X0055478Y0056459D03*
X0058627Y0056459D03*
X0061777Y0056459D03*
X0064926Y0056459D03*
X0068076Y0056459D03*
X0071226Y0056459D03*
X0071226Y0022659D03*
X0068076Y0022659D03*
X0064926Y0022659D03*
X0061777Y0022659D03*
X0058627Y0022659D03*
X0055478Y0022659D03*
X0052328Y0022659D03*
X0049178Y0022659D03*
D17*
X0072210Y0160425D03*
X0079690Y0160425D03*
X0079690Y0170661D03*
X0075950Y0170661D03*
X0072210Y0170661D03*
D18*
X0050360Y0169480D03*
X0050360Y0154543D03*
X0101541Y0154543D03*
X0101541Y0169480D03*
D19*
X0082397Y0151764D03*
X0069503Y0151764D03*
D20*
X0022800Y0009437D03*
X0022800Y0022437D03*
D21*
X0040517Y0131537D03*
X0040517Y0144431D03*
D22*
X0064139Y0163575D03*
X0068076Y0143890D03*
X0039958Y0105826D03*
X0037258Y0078826D03*
X0036580Y0059244D03*
X0055258Y0075563D03*
X0079221Y0089906D03*
X0103509Y0086803D03*
X0109415Y0069087D03*
X0123194Y0088772D03*
X0087489Y0047326D03*
X0083158Y0054863D03*
X0065158Y0046257D03*
X0064426Y0038157D03*
X0056265Y0043496D03*
X0050360Y0033654D03*
X0045189Y0012226D03*
X0068076Y0014757D03*
X0082089Y0019594D03*
X0087658Y0014026D03*
X0108352Y0010031D03*
X0111058Y0034726D03*
X0129226Y0033994D03*
D23*
X0131068Y0108457D03*
X0089730Y0171449D03*
D24*
X0127131Y0169480D03*
X0024769Y0169480D03*
M02*
