G75*
%MOIN*%
%OFA0B0*%
%FSLAX25Y25*%
%IPPOS*%
%LPD*%
%AMOC8*
5,1,8,0,0,1.08239X$1,22.5*
%
%ADD10C,0.00000*%
%ADD11C,0.00512*%
%ADD12C,0.00600*%
%ADD13R,0.05000X0.07500*%
%ADD14R,0.03500X0.03100*%
%ADD15C,0.07400*%
%ADD16R,0.10000X0.05000*%
%ADD17R,0.09000X0.06000*%
%ADD18R,0.05000X0.02200*%
%ADD19R,0.02200X0.05000*%
%ADD20R,0.02165X0.04724*%
%ADD21R,0.06299X0.11000*%
%ADD22R,0.03583X0.04803*%
%ADD23R,0.07500X0.05000*%
%ADD24R,0.04803X0.03583*%
%ADD25C,0.01000*%
%ADD26C,0.04000*%
%ADD27C,0.03962*%
%ADD28C,0.03200*%
%ADD29OC8,0.15811*%
D10*
X0012958Y0004126D02*
X0012958Y0185228D01*
X0138942Y0185228D01*
X0138942Y0004126D01*
X0012958Y0004126D01*
D11*
X0138942Y0004126D02*
X0187764Y0004126D01*
X0180087Y0004382D02*
X0181111Y0014362D01*
X0181344Y0014362D02*
X0180087Y0004382D01*
X0179064Y0014362D01*
X0178830Y0014362D02*
X0181344Y0014362D01*
X0180599Y0014362D02*
X0180087Y0004382D01*
X0179575Y0014362D01*
X0178830Y0014362D02*
X0180087Y0004382D01*
X0180087Y0184972D01*
X0181111Y0174992D01*
X0181344Y0174992D02*
X0180087Y0184972D01*
X0179064Y0174992D01*
X0178830Y0174992D02*
X0181344Y0174992D01*
X0180599Y0174992D02*
X0180087Y0184972D01*
X0179575Y0174992D01*
X0178830Y0174992D02*
X0180087Y0184972D01*
X0187764Y0185228D02*
X0138942Y0185228D01*
X0138942Y0214165D01*
X0138686Y0206488D02*
X0128706Y0205465D01*
X0128706Y0205231D02*
X0138686Y0206488D01*
X0128706Y0207512D01*
X0128706Y0207745D02*
X0128706Y0205231D01*
X0128706Y0205976D02*
X0138686Y0206488D01*
X0128706Y0207000D01*
X0128706Y0207745D02*
X0138686Y0206488D01*
X0013214Y0206488D01*
X0023194Y0205465D01*
X0023194Y0205231D02*
X0013214Y0206488D01*
X0023194Y0207512D01*
X0023194Y0207745D02*
X0023194Y0205231D01*
X0023194Y0205976D02*
X0013214Y0206488D01*
X0023194Y0207000D01*
X0023194Y0207745D02*
X0013214Y0206488D01*
X0012958Y0214165D02*
X0012958Y0185228D01*
D12*
X0070680Y0210118D02*
X0071748Y0209050D01*
X0073883Y0209050D01*
X0074951Y0210118D01*
X0074951Y0211185D01*
X0073883Y0212253D01*
X0072815Y0212253D01*
X0073883Y0212253D02*
X0074951Y0213320D01*
X0074951Y0214388D01*
X0073883Y0215455D01*
X0071748Y0215455D01*
X0070680Y0214388D01*
X0077126Y0214388D02*
X0078193Y0215455D01*
X0080328Y0215455D01*
X0081396Y0214388D01*
X0081396Y0213320D01*
X0077126Y0209050D01*
X0081396Y0209050D01*
X0171120Y0100123D02*
X0172187Y0097988D01*
X0174323Y0095853D01*
X0174323Y0099056D01*
X0175390Y0100123D01*
X0176458Y0100123D01*
X0177525Y0099056D01*
X0177525Y0096920D01*
X0176458Y0095853D01*
X0174323Y0095853D01*
X0174323Y0093678D02*
X0174323Y0089407D01*
X0171120Y0092610D01*
X0177525Y0092610D01*
D13*
X0121820Y0098614D03*
X0108820Y0098614D03*
X0108820Y0118299D03*
X0121820Y0118299D03*
X0110009Y0137984D03*
X0097009Y0137984D03*
X0082450Y0134047D03*
X0069450Y0134047D03*
X0069450Y0114362D03*
X0082450Y0114362D03*
X0043080Y0118299D03*
X0030080Y0118299D03*
X0030080Y0098614D03*
X0043080Y0098614D03*
X0039923Y0012000D03*
X0052923Y0012000D03*
X0061576Y0012000D03*
X0074576Y0012000D03*
D14*
X0060265Y0134084D03*
X0060265Y0141684D03*
X0052265Y0137884D03*
D15*
X0024769Y0137984D03*
X0024769Y0147984D03*
X0020832Y0055622D03*
X0020832Y0045622D03*
X0020832Y0035622D03*
X0127131Y0137984D03*
X0127131Y0147984D03*
D16*
X0119257Y0064559D03*
X0119257Y0054559D03*
X0119257Y0044559D03*
X0119257Y0034559D03*
X0119257Y0024559D03*
X0119257Y0014559D03*
D17*
X0088950Y0081740D03*
X0088950Y0099740D03*
X0062950Y0099740D03*
X0062950Y0081740D03*
D18*
X0077102Y0050583D03*
X0077102Y0047433D03*
X0077102Y0044283D03*
X0077102Y0041134D03*
X0077102Y0037984D03*
X0077102Y0034835D03*
X0077102Y0031685D03*
X0077102Y0028535D03*
X0043302Y0028535D03*
X0043302Y0031685D03*
X0043302Y0034835D03*
X0043302Y0037984D03*
X0043302Y0041134D03*
X0043302Y0044283D03*
X0043302Y0047433D03*
X0043302Y0050583D03*
D19*
X0049178Y0056459D03*
X0052328Y0056459D03*
X0055478Y0056459D03*
X0058627Y0056459D03*
X0061777Y0056459D03*
X0064926Y0056459D03*
X0068076Y0056459D03*
X0071226Y0056459D03*
X0071226Y0022659D03*
X0068076Y0022659D03*
X0064926Y0022659D03*
X0061777Y0022659D03*
X0058627Y0022659D03*
X0055478Y0022659D03*
X0052328Y0022659D03*
X0049178Y0022659D03*
D20*
X0072210Y0160425D03*
X0079690Y0160425D03*
X0079690Y0170661D03*
X0075950Y0170661D03*
X0072210Y0170661D03*
D21*
X0050360Y0169480D03*
X0050360Y0154543D03*
X0101541Y0154543D03*
X0101541Y0169480D03*
D22*
X0082397Y0151764D03*
X0069503Y0151764D03*
D23*
X0022800Y0022437D03*
X0022800Y0009437D03*
D24*
X0040517Y0131537D03*
X0040517Y0144431D03*
D25*
X0039958Y0144526D01*
X0040517Y0144431D02*
X0040858Y0143626D01*
X0039958Y0131926D02*
X0040517Y0131537D01*
X0040858Y0128326D02*
X0048058Y0128326D01*
X0059758Y0140026D01*
X0063358Y0136426D01*
X0063358Y0131926D01*
X0068758Y0126526D01*
X0068758Y0114826D01*
X0069450Y0114362D01*
X0068758Y0113926D01*
X0068758Y0105826D01*
X0074158Y0100426D01*
X0088558Y0100426D01*
X0088950Y0099740D01*
X0081856Y0090740D02*
X0080056Y0090740D01*
X0079221Y0089906D01*
X0078087Y0088772D01*
X0070045Y0088772D01*
X0063358Y0082085D01*
X0063358Y0081526D01*
X0062950Y0081740D01*
X0055258Y0075563D02*
X0057732Y0073089D01*
X0102452Y0073089D01*
X0111058Y0081694D01*
X0111058Y0095926D01*
X0109258Y0097726D01*
X0108820Y0098614D01*
X0108358Y0098626D01*
X0093058Y0113926D01*
X0083158Y0113926D01*
X0082450Y0114362D01*
X0082258Y0114826D01*
X0082258Y0121126D01*
X0069658Y0133726D01*
X0069450Y0134047D01*
X0070045Y0134642D01*
X0070045Y0141921D01*
X0068076Y0143890D01*
X0068758Y0144572D01*
X0068758Y0151726D01*
X0069503Y0151764D01*
X0073982Y0151764D01*
X0079887Y0157669D01*
X0079887Y0160228D01*
X0079690Y0160425D01*
X0075950Y0157669D02*
X0075950Y0163575D01*
X0077919Y0165543D01*
X0084641Y0165543D01*
X0091258Y0158926D01*
X0099358Y0158926D01*
X0101541Y0154543D01*
X0100258Y0158026D01*
X0100258Y0147226D01*
X0109258Y0138226D01*
X0110009Y0137984D01*
X0110158Y0138226D01*
X0126358Y0138226D01*
X0127131Y0137984D01*
X0127131Y0147984D02*
X0126358Y0148126D01*
X0104758Y0139126D02*
X0104758Y0111226D01*
X0113352Y0104520D01*
X0113352Y0073024D01*
X0109415Y0069087D01*
X0102452Y0067294D02*
X0102452Y0073089D01*
X0102452Y0067294D02*
X0111789Y0059926D01*
X0123658Y0059926D01*
X0125845Y0059926D01*
X0133037Y0067118D01*
X0133037Y0096646D01*
X0131068Y0098614D01*
X0131068Y0108457D01*
X0126358Y0110326D02*
X0126358Y0122026D01*
X0124558Y0123826D01*
X0114658Y0123826D01*
X0109258Y0118426D01*
X0108820Y0118299D01*
X0120958Y0117526D02*
X0120958Y0107626D01*
X0117358Y0104026D01*
X0117358Y0067126D01*
X0119158Y0065326D01*
X0119257Y0064559D01*
X0123658Y0059926D02*
X0126358Y0057226D01*
X0126358Y0051826D01*
X0124558Y0050026D01*
X0114658Y0050026D01*
X0107458Y0042826D01*
X0081358Y0042826D01*
X0080458Y0043726D01*
X0077758Y0043726D01*
X0077102Y0044283D01*
X0077758Y0047326D02*
X0077102Y0047433D01*
X0077758Y0047326D02*
X0087489Y0047326D01*
X0081358Y0042826D02*
X0081358Y0039226D01*
X0080458Y0038326D01*
X0077758Y0038326D01*
X0077102Y0037984D01*
X0076858Y0041026D02*
X0074158Y0041026D01*
X0073258Y0040126D01*
X0073258Y0035626D01*
X0074158Y0034726D01*
X0076858Y0034726D01*
X0077102Y0034835D01*
X0077758Y0034726D01*
X0079558Y0034726D01*
X0081358Y0032926D01*
X0081358Y0025282D01*
X0077919Y0021843D01*
X0077919Y0015431D01*
X0083824Y0009526D01*
X0107846Y0009526D01*
X0108352Y0010031D01*
X0108746Y0010426D01*
X0115558Y0010426D01*
X0119158Y0014026D01*
X0119257Y0014559D01*
X0119158Y0014926D01*
X0119158Y0023926D01*
X0119257Y0024559D01*
X0123658Y0028426D02*
X0102058Y0028426D01*
X0087658Y0014026D01*
X0086589Y0019594D02*
X0114658Y0043726D01*
X0119158Y0043726D01*
X0119257Y0044559D01*
X0118037Y0053339D02*
X0113352Y0053339D01*
X0107446Y0059244D01*
X0079887Y0059244D01*
X0070045Y0049402D01*
X0070045Y0031685D01*
X0068076Y0029717D01*
X0068076Y0022659D01*
X0065158Y0022126D02*
X0065158Y0018526D01*
X0068076Y0014757D01*
X0073982Y0012594D02*
X0074576Y0012000D01*
X0073982Y0012594D02*
X0073982Y0023811D01*
X0077102Y0026931D01*
X0077102Y0028535D01*
X0082089Y0019594D02*
X0086589Y0019594D01*
X0077102Y0041134D02*
X0076858Y0041026D01*
X0077102Y0050583D02*
X0077758Y0050926D01*
X0079221Y0050926D01*
X0083158Y0054863D01*
X0071226Y0056459D02*
X0070558Y0057226D01*
X0070558Y0059926D01*
X0062458Y0068026D01*
X0053458Y0068026D01*
X0030958Y0090526D01*
X0030958Y0097726D01*
X0030080Y0098614D01*
X0030958Y0098626D01*
X0030958Y0102226D01*
X0042658Y0113926D01*
X0042658Y0117526D01*
X0043080Y0118299D01*
X0039058Y0118426D02*
X0039058Y0122926D01*
X0039958Y0123826D01*
X0046258Y0123826D01*
X0047158Y0122926D01*
X0047158Y0113026D01*
X0039958Y0105826D01*
X0043080Y0098614D02*
X0043558Y0098626D01*
X0059758Y0114826D01*
X0059758Y0133726D01*
X0060265Y0134084D01*
X0059758Y0140026D02*
X0060658Y0140926D01*
X0060265Y0141684D01*
X0059758Y0141826D01*
X0059758Y0155257D01*
X0060202Y0155701D01*
X0051517Y0155701D01*
X0050360Y0154543D01*
X0052558Y0158026D01*
X0060202Y0155701D02*
X0073982Y0155701D01*
X0075950Y0157669D01*
X0082397Y0151764D02*
X0083158Y0151726D01*
X0092158Y0151726D01*
X0104758Y0139126D01*
X0097009Y0137984D02*
X0096658Y0137326D01*
X0093958Y0134626D01*
X0083158Y0134626D01*
X0082450Y0134047D01*
X0069450Y0134047D02*
X0068758Y0134626D01*
X0052265Y0137884D02*
X0051658Y0138226D01*
X0040858Y0128326D02*
X0030958Y0118426D01*
X0030080Y0118299D01*
X0039058Y0118426D02*
X0025558Y0104926D01*
X0025558Y0085126D01*
X0035458Y0075226D01*
X0036358Y0075226D01*
X0042491Y0069093D01*
X0036580Y0063181D01*
X0036580Y0059244D01*
X0044458Y0055426D02*
X0021058Y0055426D01*
X0020832Y0055622D01*
X0032758Y0047326D02*
X0021058Y0035626D01*
X0020832Y0035622D01*
X0022858Y0023026D02*
X0022800Y0022437D01*
X0022858Y0023026D02*
X0040858Y0041026D01*
X0042658Y0041026D01*
X0043302Y0041134D01*
X0043302Y0037984D02*
X0042658Y0037426D01*
X0039958Y0037426D01*
X0039058Y0036526D01*
X0039058Y0012226D01*
X0039923Y0012000D01*
X0039958Y0012226D01*
X0045189Y0012226D01*
X0039923Y0012000D02*
X0039058Y0011326D01*
X0037258Y0009526D01*
X0022858Y0009526D01*
X0022800Y0009437D01*
X0043302Y0031685D02*
X0043558Y0032026D01*
X0046258Y0032026D01*
X0050536Y0027748D01*
X0056265Y0027748D01*
X0058234Y0029717D01*
X0058234Y0033654D01*
X0052558Y0039329D01*
X0052558Y0047326D01*
X0044458Y0055426D01*
X0043302Y0050583D02*
X0043558Y0050026D01*
X0045798Y0050026D01*
X0050360Y0045465D01*
X0050360Y0033654D01*
X0056265Y0043496D02*
X0056265Y0047433D01*
X0049858Y0053840D01*
X0049858Y0056326D01*
X0049178Y0056459D01*
X0051658Y0057226D02*
X0052328Y0056459D01*
X0051658Y0057226D02*
X0051658Y0059926D01*
X0042491Y0069093D01*
X0037258Y0078826D02*
X0055258Y0060826D01*
X0055258Y0057226D01*
X0055478Y0056459D01*
X0061777Y0056459D02*
X0062458Y0056326D01*
X0062458Y0048957D01*
X0065158Y0046257D01*
X0064426Y0038157D02*
X0066108Y0036476D01*
X0066108Y0031685D01*
X0062458Y0028035D01*
X0062458Y0023026D01*
X0061777Y0022659D01*
X0064926Y0022659D02*
X0065158Y0022126D01*
X0061558Y0012226D02*
X0061576Y0012000D01*
X0061558Y0012226D02*
X0053458Y0012226D01*
X0052923Y0012000D01*
X0043302Y0047433D02*
X0042658Y0047326D01*
X0032758Y0047326D01*
X0062950Y0099740D02*
X0063358Y0100426D01*
X0068758Y0105826D01*
X0081856Y0090740D02*
X0088558Y0084038D01*
X0088558Y0081526D01*
X0088950Y0081740D01*
X0089458Y0081526D01*
X0089458Y0084563D01*
X0091698Y0086803D01*
X0103509Y0086803D01*
X0121858Y0094045D02*
X0123194Y0092709D01*
X0123194Y0088772D01*
X0121858Y0094045D02*
X0121858Y0097726D01*
X0121820Y0098614D01*
X0121858Y0098626D01*
X0121858Y0105826D01*
X0126358Y0110326D01*
X0120958Y0117526D02*
X0121820Y0118299D01*
X0101541Y0169480D02*
X0097604Y0173417D01*
X0091698Y0173417D01*
X0089730Y0171449D01*
X0079887Y0170858D02*
X0079690Y0170661D01*
X0079887Y0170465D01*
X0079887Y0169480D01*
X0075950Y0165543D01*
X0073982Y0165543D01*
X0072210Y0167315D01*
X0072210Y0170661D01*
X0075950Y0170661D02*
X0075950Y0173417D01*
X0073982Y0175386D01*
X0070045Y0175386D01*
X0064139Y0169480D01*
X0064139Y0163575D01*
X0050360Y0169480D02*
X0051658Y0173326D01*
X0052558Y0173326D02*
X0050360Y0169480D01*
X0056265Y0179323D02*
X0075950Y0179323D01*
X0079887Y0175386D01*
X0079887Y0170858D01*
X0100258Y0173326D02*
X0101541Y0169480D01*
X0025558Y0147226D02*
X0024769Y0147984D01*
X0024658Y0138226D02*
X0024769Y0137984D01*
X0025558Y0137326D01*
X0111058Y0034726D02*
X0119158Y0034726D01*
X0119257Y0034559D01*
X0123658Y0028426D02*
X0129226Y0033994D01*
X0118037Y0053339D02*
X0119257Y0054559D01*
X0119158Y0054526D01*
D26*
X0109415Y0069087D03*
X0103509Y0086803D03*
X0123194Y0088772D03*
X0087489Y0047326D03*
X0083158Y0054863D03*
X0065158Y0046257D03*
X0064426Y0038157D03*
X0056265Y0043496D03*
X0050360Y0033654D03*
X0045189Y0012226D03*
X0068076Y0014757D03*
X0082089Y0019594D03*
X0087658Y0014026D03*
X0108352Y0010031D03*
X0111058Y0034726D03*
X0129226Y0033994D03*
X0079221Y0089906D03*
X0055258Y0075563D03*
X0037258Y0078826D03*
X0036580Y0059244D03*
X0039958Y0105826D03*
X0068076Y0143890D03*
X0064139Y0163575D03*
D27*
X0089730Y0171449D03*
X0131068Y0108457D03*
D28*
X0127131Y0147984D02*
X0121383Y0153732D01*
X0121226Y0153732D01*
X0111383Y0163575D01*
X0111383Y0173417D01*
X0105478Y0179323D01*
X0056265Y0179323D01*
X0046423Y0169480D01*
X0044454Y0169480D01*
X0030675Y0155701D01*
X0020832Y0155701D01*
X0016895Y0151764D01*
X0016895Y0145858D01*
X0024527Y0138226D01*
X0024658Y0138226D01*
X0025558Y0137326D02*
X0030958Y0131926D01*
X0039958Y0131926D01*
X0046258Y0138226D02*
X0040858Y0143626D01*
X0039958Y0144526D02*
X0028258Y0144526D01*
X0025558Y0147226D01*
X0046258Y0138226D02*
X0051658Y0138226D01*
D29*
X0024769Y0169480D03*
X0127131Y0169480D03*
M02*
